<?xml version="1.0" encoding="UTF-8" standalone="yes"?><svg xmlns="http://www.w3.org/2000/svg" xmlns:xlink="http://www.w3.org/1999/xlink" height="928pt" style="width:892px;height:928px;" version="1.1" viewBox="0 0 892 928" width="892pt"><defs><filter height="300%" id="f1" width="300%" x="-1" y="-1"><feGaussianBlur result="blurOut" stdDeviation="2.0"/><feColorMatrix in="blurOut" result="blurOut2" type="matrix" values="0 0 0 0 0 0 0 0 0 0 0 0 0 0 0 0 0 0 .4 0"/><feOffset dx="4.0" dy="4.0" in="blurOut2" result="blurOut3"/><feBlend in="SourceGraphic" in2="blurOut3" mode="normal"/></filter></defs><g><polygon fill="#FFFFFF" filter="url(#f1)" points="314,16,506,16,513,38.4883,592,38.4883,592,255,314,255,314,16" style="stroke: #000000; stroke-width: 2.0;"/><line style="stroke: #000000; stroke-width: 2.0;" x1="314" x2="513" y1="38.4883" y2="38.4883"/><text fill="#000000" font-family="sans-serif" font-size="14" font-weight="bold" lengthAdjust="spacingAndGlyphs" textLength="186" x="317" y="32.5352">Indentifying Stakeholders</text><polygon fill="#FFFFFF" filter="url(#f1)" points="181,263,364,263,371,285.4883,807,285.4883,807,442,181,442,181,263" style="stroke: #000000; stroke-width: 2.0;"/><line style="stroke: #000000; stroke-width: 2.0;" x1="181" x2="371" y1="285.4883" y2="285.4883"/><text fill="#000000" font-family="sans-serif" font-size="14" font-weight="bold" lengthAdjust="spacingAndGlyphs" textLength="177" x="184" y="279.5352">Operational Architecture</text><polygon fill="#FFFFFF" filter="url(#f1)" points="58,450,231,450,238,472.4883,845,472.4883,845,643,58,643,58,450" style="stroke: #000000; stroke-width: 2.0;"/><line style="stroke: #000000; stroke-width: 2.0;" x1="58" x2="238" y1="472.4883" y2="472.4883"/><text fill="#000000" font-family="sans-serif" font-size="14" font-weight="bold" lengthAdjust="spacingAndGlyphs" textLength="167" x="61" y="466.5352">Functional Architecture</text><polygon fill="#FFFFFF" filter="url(#f1)" points="14,651,209,651,216,673.4883,885,673.4883,885,844,14,844,14,651" style="stroke: #000000; stroke-width: 2.0;"/><line style="stroke: #000000; stroke-width: 2.0;" x1="14" x2="216" y1="673.4883" y2="673.4883"/><text fill="#000000" font-family="sans-serif" font-size="14" font-weight="bold" lengthAdjust="spacingAndGlyphs" textLength="189" x="17" y="667.5352">Constructinal Architecture</text><polygon fill="#FFFFFF" filter="url(#f1)" points="423,852,500,852,507,874.4883,510,874.4883,510,921,423,921,423,852" style="stroke: #000000; stroke-width: 2.0;"/><line style="stroke: #000000; stroke-width: 2.0;" x1="423" x2="507" y1="874.4883" y2="874.4883"/><text fill="#000000" font-family="sans-serif" font-size="14" font-weight="bold" lengthAdjust="spacingAndGlyphs" textLength="71" x="426" y="868.5352">Trade-off</text><ellipse cx="466" cy="53" fill="#000000" filter="url(#f1)" rx="10" ry="10" style="stroke: none; stroke-width: 1.0;"/><rect fill="#000000" filter="url(#f1)" height="8" style="stroke: none; stroke-width: 1.0;" width="80" x="426" y="103"/><rect fill="#FFFACD" filter="url(#f1)" height="47.8672" rx="12.5" ry="12.5" style="stroke: #2F4F4F; stroke-width: 1.5;" width="148" x="322" y="151"/><text fill="#000000" font-family="TrebuchetMS" font-size="12" lengthAdjust="spacingAndGlyphs" textLength="128" x="332" y="172.2676">Stakeholders Hierarchy</text><text fill="#000000" font-family="TrebuchetMS" font-size="12" lengthAdjust="spacingAndGlyphs" textLength="43" x="376.5" y="186.2012">Diagram</text><rect fill="#000000" filter="url(#f1)" height="8" style="stroke: none; stroke-width: 1.0;" width="80" x="426" y="239"/><rect fill="#FFFACD" filter="url(#f1)" height="47.8672" rx="12.5" ry="12.5" style="stroke: #2F4F4F; stroke-width: 1.5;" width="93" x="490.5" y="151"/><text fill="#000000" font-family="TrebuchetMS" font-size="12" lengthAdjust="spacingAndGlyphs" textLength="69" x="500.5" y="172.2676">Environment</text><text fill="#000000" font-family="TrebuchetMS" font-size="12" lengthAdjust="spacingAndGlyphs" textLength="43" x="515.5" y="186.2012">Diagram</text><rect fill="#000000" filter="url(#f1)" height="8" style="stroke: none; stroke-width: 1.0;" width="80" x="426" y="290"/><rect fill="#FFFACD" filter="url(#f1)" height="47.8672" rx="12.5" ry="12.5" style="stroke: #2F4F4F; stroke-width: 1.5;" width="127" x="189.5" y="338"/><text fill="#000000" font-family="TrebuchetMS" font-size="12" lengthAdjust="spacingAndGlyphs" textLength="103" x="199.5" y="359.2676">Need Architecture</text><text fill="#000000" font-family="TrebuchetMS" font-size="12" lengthAdjust="spacingAndGlyphs" textLength="43" x="231.5" y="373.2012">Diagram</text><rect fill="#000000" filter="url(#f1)" height="8" style="stroke: none; stroke-width: 1.0;" width="80" x="426" y="426"/><rect fill="#FFFACD" filter="url(#f1)" height="47.8672" rx="12.5" ry="12.5" style="stroke: #2F4F4F; stroke-width: 1.5;" width="73" x="336.5" y="338"/><text fill="#000000" font-family="TrebuchetMS" font-size="12" lengthAdjust="spacingAndGlyphs" textLength="49" x="346.5" y="359.2676">Lifecycle</text><text fill="#000000" font-family="TrebuchetMS" font-size="12" lengthAdjust="spacingAndGlyphs" textLength="43" x="351.5" y="373.2012">Diagram</text><rect fill="#FFFACD" filter="url(#f1)" height="47.8672" rx="12.5" ry="12.5" style="stroke: #2F4F4F; stroke-width: 1.5;" width="73" x="429.5" y="338"/><text fill="#000000" font-family="TrebuchetMS" font-size="12" lengthAdjust="spacingAndGlyphs" textLength="49" x="439.5" y="359.2676">Use Case</text><text fill="#000000" font-family="TrebuchetMS" font-size="12" lengthAdjust="spacingAndGlyphs" textLength="43" x="444.5" y="373.2012">Diagram</text><rect fill="#FFFACD" filter="url(#f1)" height="47.8672" rx="12.5" ry="12.5" style="stroke: #2F4F4F; stroke-width: 1.5;" width="138" x="523" y="338"/><text fill="#000000" font-family="TrebuchetMS" font-size="12" lengthAdjust="spacingAndGlyphs" textLength="114" x="533" y="359.2676">Operational Scenario</text><text fill="#000000" font-family="TrebuchetMS" font-size="12" lengthAdjust="spacingAndGlyphs" textLength="43" x="570.5" y="373.2012">Diagram</text><rect fill="#FFFACD" filter="url(#f1)" height="47.8672" rx="12.5" ry="12.5" style="stroke: #2F4F4F; stroke-width: 1.5;" width="117" x="681.5" y="338"/><text fill="#000000" font-family="TrebuchetMS" font-size="12" lengthAdjust="spacingAndGlyphs" textLength="93" x="691.5" y="359.2676">Operational Flow</text><text fill="#000000" font-family="TrebuchetMS" font-size="12" lengthAdjust="spacingAndGlyphs" textLength="43" x="718.5" y="373.2012">Diagram</text><rect fill="#000000" filter="url(#f1)" height="8" style="stroke: none; stroke-width: 1.0;" width="80" x="426" y="477"/><rect fill="#FFFACD" filter="url(#f1)" height="47.8672" rx="12.5" ry="12.5" style="stroke: #2F4F4F; stroke-width: 1.5;" width="155" x="66.5" y="532"/><text fill="#000000" font-family="TrebuchetMS" font-size="12" lengthAdjust="spacingAndGlyphs" textLength="131" x="76.5" y="553.2676">Functional requirement</text><text fill="#000000" font-family="TrebuchetMS" font-size="12" lengthAdjust="spacingAndGlyphs" textLength="116" x="86" y="567.2012">architecture Diagram</text><rect fill="#000000" filter="url(#f1)" height="8" style="stroke: none; stroke-width: 1.0;" width="80" x="426" y="627"/><rect fill="#FFFACD" filter="url(#f1)" height="47.8672" rx="12.5" ry="12.5" style="stroke: #2F4F4F; stroke-width: 1.5;" width="115" x="241.5" y="532"/><text fill="#000000" font-family="TrebuchetMS" font-size="12" lengthAdjust="spacingAndGlyphs" textLength="91" x="251.5" y="553.2676">Functional mode</text><text fill="#000000" font-family="TrebuchetMS" font-size="12" lengthAdjust="spacingAndGlyphs" textLength="43" x="277.5" y="567.2012">Diagram</text><rect fill="#FFFACD" filter="url(#f1)" height="61.8008" rx="12.5" ry="12.5" style="stroke: #2F4F4F; stroke-width: 1.5;" width="178" x="377" y="525"/><text fill="#000000" font-family="TrebuchetMS" font-size="12" lengthAdjust="spacingAndGlyphs" textLength="57" x="435.5" y="546.2676">Functional</text><text fill="#000000" font-family="TrebuchetMS" font-size="12" lengthAdjust="spacingAndGlyphs" textLength="154" x="387" y="560.2012">decomposition &amp; interaction</text><text fill="#000000" font-family="TrebuchetMS" font-size="12" lengthAdjust="spacingAndGlyphs" textLength="48" x="442" y="574.1348">Diagrams</text><rect fill="#FFFACD" filter="url(#f1)" height="47.8672" rx="12.5" ry="12.5" style="stroke: #2F4F4F; stroke-width: 1.5;" width="130" x="575" y="532"/><text fill="#000000" font-family="TrebuchetMS" font-size="12" lengthAdjust="spacingAndGlyphs" textLength="106" x="585" y="553.2676">Functional scenario</text><text fill="#000000" font-family="TrebuchetMS" font-size="12" lengthAdjust="spacingAndGlyphs" textLength="48" x="616" y="567.2012">Diagrams</text><rect fill="#FFFACD" filter="url(#f1)" height="47.8672" rx="12.5" ry="12.5" style="stroke: #2F4F4F; stroke-width: 1.5;" width="112" x="725" y="532"/><text fill="#000000" font-family="TrebuchetMS" font-size="12" lengthAdjust="spacingAndGlyphs" textLength="84" x="735" y="553.2676">Functional flow</text><text fill="#000000" font-family="TrebuchetMS" font-size="12" lengthAdjust="spacingAndGlyphs" textLength="48" x="757" y="567.2012">Diagrams</text><rect fill="#000000" filter="url(#f1)" height="8" style="stroke: none; stroke-width: 1.0;" width="80" x="426" y="678"/><rect fill="#FFFACD" filter="url(#f1)" height="47.8672" rx="12.5" ry="12.5" style="stroke: #2F4F4F; stroke-width: 1.5;" width="177" x="22.5" y="733"/><text fill="#000000" font-family="TrebuchetMS" font-size="12" lengthAdjust="spacingAndGlyphs" textLength="153" x="32.5" y="754.2676">Constructional requirement</text><text fill="#000000" font-family="TrebuchetMS" font-size="12" lengthAdjust="spacingAndGlyphs" textLength="116" x="53" y="768.2012">architecture Diagram</text><rect fill="#000000" filter="url(#f1)" height="8" style="stroke: none; stroke-width: 1.0;" width="80" x="426" y="828"/><rect fill="#FFFACD" filter="url(#f1)" height="47.8672" rx="12.5" ry="12.5" style="stroke: #2F4F4F; stroke-width: 1.5;" width="137" x="219.5" y="733"/><text fill="#000000" font-family="TrebuchetMS" font-size="12" lengthAdjust="spacingAndGlyphs" textLength="113" x="229.5" y="754.2676">Constructional mode</text><text fill="#000000" font-family="TrebuchetMS" font-size="12" lengthAdjust="spacingAndGlyphs" textLength="43" x="266.5" y="768.2012">Diagram</text><rect fill="#FFFACD" filter="url(#f1)" height="61.8008" rx="12.5" ry="12.5" style="stroke: #2F4F4F; stroke-width: 1.5;" width="178" x="377" y="726"/><text fill="#000000" font-family="TrebuchetMS" font-size="12" lengthAdjust="spacingAndGlyphs" textLength="79" x="424.5" y="747.2676">Constructional</text><text fill="#000000" font-family="TrebuchetMS" font-size="12" lengthAdjust="spacingAndGlyphs" textLength="154" x="387" y="761.2012">decomposition &amp; interaction</text><text fill="#000000" font-family="TrebuchetMS" font-size="12" lengthAdjust="spacingAndGlyphs" textLength="48" x="442" y="775.1348">Diagrams</text><rect fill="#FFFACD" filter="url(#f1)" height="47.8672" rx="12.5" ry="12.5" style="stroke: #2F4F4F; stroke-width: 1.5;" width="152" x="575" y="733"/><text fill="#000000" font-family="TrebuchetMS" font-size="12" lengthAdjust="spacingAndGlyphs" textLength="128" x="585" y="754.2676">Constructional scenario</text><text fill="#000000" font-family="TrebuchetMS" font-size="12" lengthAdjust="spacingAndGlyphs" textLength="48" x="627" y="768.2012">Diagrams</text><rect fill="#FFFACD" filter="url(#f1)" height="47.8672" rx="12.5" ry="12.5" style="stroke: #2F4F4F; stroke-width: 1.5;" width="130" x="747" y="733"/><text fill="#000000" font-family="TrebuchetMS" font-size="12" lengthAdjust="spacingAndGlyphs" textLength="106" x="757" y="754.2676">Constructional flow</text><text fill="#000000" font-family="TrebuchetMS" font-size="12" lengthAdjust="spacingAndGlyphs" textLength="48" x="788" y="768.2012">Diagrams</text><rect fill="#FFFACD" filter="url(#f1)" height="33.9336" rx="12.5" ry="12.5" style="stroke: #2F4F4F; stroke-width: 1.5;" width="70" x="431" y="879"/><text fill="#000000" font-family="TrebuchetMS" font-size="12" lengthAdjust="spacingAndGlyphs" textLength="50" x="441" y="900.2676">Trade-off</text><path d="M466,63.4117 C466,73.3608 466,88.2162 466,97.7569 " fill="none" style="stroke: #000000; stroke-width: 1.0; stroke-dasharray: 1.0,3.0;"/><polygon fill="#000000" points="466,102.9191,470,93.9191,466,97.9191,462,93.9191,466,102.9191" style="stroke: #000000; stroke-width: 1.0;"/><path d="M461.8308,111.0501 C454.5048,118.1668 438.7435,133.4778 424.4799,147.3338 " fill="none" style="stroke: #000000; stroke-width: 1.0; stroke-dasharray: 1.0,3.0;"/><polygon fill="#000000" points="420.8919,150.8193,430.1345,147.4173,424.4783,147.3354,424.5602,141.6791,420.8919,150.8193" style="stroke: #000000; stroke-width: 1.0;"/><path d="M420.8765,199.1657 C433.8445,211.7632 448.8411,226.3314 457.8642,235.0967 " fill="none" style="stroke: #000000; stroke-width: 1.0; stroke-dasharray: 1.0,3.0;"/><polygon fill="#000000" points="461.7788,238.8994,458.1105,229.7592,458.1924,235.4155,452.5362,235.4974,461.7788,238.8994" style="stroke: #000000; stroke-width: 1.0;"/><path d="M470.2287,111.0501 C477.6595,118.1668 493.6459,133.4778 508.1132,147.3338 " fill="none" style="stroke: #000000; stroke-width: 1.0; stroke-dasharray: 1.0,3.0;"/><polygon fill="#000000" points="511.7525,150.8193,508.0194,141.7053,508.1415,147.3609,502.486,147.4829,511.7525,150.8193" style="stroke: #000000; stroke-width: 1.0;"/><path d="M511.7681,199.1657 C498.4953,211.8777 483.1273,226.5964 474.0039,235.3343 " fill="none" style="stroke: #000000; stroke-width: 1.0; stroke-dasharray: 1.0,3.0;"/><polygon fill="#000000" points="470.2815,238.8994,479.548,235.5628,473.8924,235.4409,474.0144,229.7854,470.2815,238.8994" style="stroke: #000000; stroke-width: 1.0;"/><path d="M466,247.0019 C466,255.0804 466,273.522 466,284.7526 " fill="none" style="stroke: #000000; stroke-width: 1.0; stroke-dasharray: 1.0,3.0;"/><polygon fill="#000000" points="466,289.875,470,280.875,466,284.875,462,280.875,466,289.875" style="stroke: #000000; stroke-width: 1.0;"/><path d="M452.959,298.0944 C428.3282,305.835 373.2813,323.17 327,338 C325.2235,338.5693 323.4232,339.147 321.607,339.7305 " fill="none" style="stroke: #000000; stroke-width: 1.0; stroke-dasharray: 1.0,3.0;"/><polygon fill="#000000" points="316.7672,341.2872,326.5597,342.3393,321.527,339.7562,324.1101,334.7235,316.7672,341.2872" style="stroke: #000000; stroke-width: 1.0;"/><path d="M316.7672,382.7128 C320.2278,383.827 323.6559,384.9285 327,386 C370.3887,399.9031 421.4815,416.0079 447.9938,424.3448 " fill="none" style="stroke: #000000; stroke-width: 1.0; stroke-dasharray: 1.0,3.0;"/><polygon fill="#000000" points="452.959,425.9056,445.5729,419.3906,448.1892,424.4061,443.1737,427.0223,452.959,425.9056" style="stroke: #000000; stroke-width: 1.0;"/><path d="M460.4609,298.0501 C450.6453,305.2271 429.4321,320.7378 410.3562,334.6858 " fill="none" style="stroke: #000000; stroke-width: 1.0; stroke-dasharray: 1.0,3.0;"/><polygon fill="#000000" points="406.0707,337.8193,415.6967,335.7361,410.1068,334.8681,410.9748,329.2782,406.0707,337.8193" style="stroke: #000000; stroke-width: 1.0;"/><path d="M406.0502,386.1657 C423.7489,399.1068 444.292,414.1275 456.1539,422.8007 " fill="none" style="stroke: #000000; stroke-width: 1.0; stroke-dasharray: 1.0,3.0;"/><polygon fill="#000000" points="460.3919,425.8994,455.4877,417.3584,456.3557,422.9482,450.7659,423.8162,460.3919,425.8994" style="stroke: #000000; stroke-width: 1.0;"/><path d="M466,298.0501 C466,304.8653 466,319.1949 466,332.5653 " fill="none" style="stroke: #000000; stroke-width: 1.0; stroke-dasharray: 1.0,3.0;"/><polygon fill="#000000" points="466,337.8193,470,328.8193,466,332.8193,462,328.8193,466,337.8193" style="stroke: #000000; stroke-width: 1.0;"/><path d="M466,386.1657 C466,398.0761 466,411.748 466,420.6118 " fill="none" style="stroke: #000000; stroke-width: 1.0; stroke-dasharray: 1.0,3.0;"/><polygon fill="#000000" points="466,425.8994,470,416.8994,466,420.8994,462,416.8994,466,425.8994" style="stroke: #000000; stroke-width: 1.0;"/><path d="M473.5045,298.0501 C487.0768,305.3748 516.7327,321.3796 542.9796,335.5445 " fill="none" style="stroke: #000000; stroke-width: 1.0; stroke-dasharray: 1.0,3.0;"/><polygon fill="#000000" points="547.4968,337.9824,541.4764,330.1879,543.0967,335.6077,537.6769,337.228,547.4968,337.9824" style="stroke: #000000; stroke-width: 1.0;"/><path d="M547.2223,386.1657 C522.6068,399.4503 493.9303,414.9265 478.085,423.4779 " fill="none" style="stroke: #000000; stroke-width: 1.0; stroke-dasharray: 1.0,3.0;"/><polygon fill="#000000" points="473.5981,425.8994,483.418,425.145,477.9982,423.5247,479.6185,418.1049,473.5981,425.8994" style="stroke: #000000; stroke-width: 1.0;"/><path d="M489.2848,298.0296 C527.5504,304.8671 605.9786,319.7889 671,338 C672.8167,338.5088 674.6552,339.0395 676.507,339.5879 " fill="none" style="stroke: #000000; stroke-width: 1.0; stroke-dasharray: 1.0,3.0;"/><polygon fill="#000000" points="681.4334,341.0777,673.9767,334.6436,676.6475,339.6303,671.6608,342.3011,681.4334,341.0777" style="stroke: #000000; stroke-width: 1.0;"/><path d="M681.4334,382.9223 C677.9167,384.0068 674.4197,385.0422 671,386 C608.7725,403.4286 534.2656,417.8445 494.4357,425.0446 " fill="none" style="stroke: #000000; stroke-width: 1.0; stroke-dasharray: 1.0,3.0;"/><polygon fill="#000000" points="489.2848,425.9704,498.8505,428.3151,494.2059,425.0858,497.4352,420.4413,489.2848,425.9704" style="stroke: #000000; stroke-width: 1.0;"/><path d="M466,434.0019 C466,442.0804 466,460.522 466,471.7526 " fill="none" style="stroke: #000000; stroke-width: 1.0; stroke-dasharray: 1.0,3.0;"/><polygon fill="#000000" points="466,476.875,470,467.875,466,471.875,462,467.875,466,476.875" style="stroke: #000000; stroke-width: 1.0;"/><path d="M436.8605,485.0143 C392.2779,491.4836 304.6603,505.4932 232,525 C226.1335,526.575 220.0974,528.3537 214.0673,530.2427 " fill="none" style="stroke: #000000; stroke-width: 1.0; stroke-dasharray: 1.0,3.0;"/><polygon fill="#000000" points="209.0073,531.8534,218.7966,532.9351,213.7718,530.3368,216.37,525.312,209.0073,531.8534" style="stroke: #000000; stroke-width: 1.0;"/><path d="M209.0073,580.1466 C216.7039,582.6342 224.4908,584.9841 232,587 C301.964,605.7829 385.7956,619.469 431.7224,626.2345 " fill="none" style="stroke: #000000; stroke-width: 1.0; stroke-dasharray: 1.0,3.0;"/><polygon fill="#000000" points="436.8605,626.9857,428.5339,621.7256,431.9131,626.2623,427.3765,629.6415,436.8605,626.9857" style="stroke: #000000; stroke-width: 1.0;"/><path d="M456.7056,485.0956 C439.1524,492.8383 399.9299,510.1766 367,525 C363.5838,526.5378 360.0731,528.1231 356.5328,529.7256 " fill="none" style="stroke: #000000; stroke-width: 1.0; stroke-dasharray: 1.0,3.0;"/><polygon fill="#000000" points="351.6927,531.9186,361.5413,531.8476,356.247,529.855,358.2396,524.5607,351.6927,531.9186" style="stroke: #000000; stroke-width: 1.0;"/><path d="M351.6927,580.0814 C356.8621,582.4259 362.031,584.7632 367,587 C397.1,600.5495 432.4575,616.2003 451.7178,624.7033 " fill="none" style="stroke: #000000; stroke-width: 1.0; stroke-dasharray: 1.0,3.0;"/><polygon fill="#000000" points="456.7056,626.9044,450.0866,619.6114,452.1312,624.8858,446.8568,626.9304,456.7056,626.9044" style="stroke: #000000; stroke-width: 1.0;"/><path d="M466,485.0323 C466,491.7527 466,505.8821 466,519.7774 " fill="none" style="stroke: #000000; stroke-width: 1.0; stroke-dasharray: 1.0,3.0;"/><polygon fill="#000000" points="466,524.8719,470,515.8719,466,519.8719,462,515.8719,466,524.8719" style="stroke: #000000; stroke-width: 1.0;"/><path d="M466,587.3722 C466,599.7656 466,613.0768 466,621.6921 " fill="none" style="stroke: #000000; stroke-width: 1.0; stroke-dasharray: 1.0,3.0;"/><polygon fill="#000000" points="466,626.8373,470,617.8373,466,621.8373,462,617.8373,466,626.8373" style="stroke: #000000; stroke-width: 1.0;"/><path d="M475.355,485.0323 C494.8227,493.4236 541.0886,513.3658 579.6346,529.9804 " fill="none" style="stroke: #000000; stroke-width: 1.0; stroke-dasharray: 1.0,3.0;"/><polygon fill="#000000" points="584.2947,531.9891,577.613,524.7534,579.7031,530.01,574.4465,532.1,584.2947,531.9891" style="stroke: #000000; stroke-width: 1.0;"/><path d="M583.9875,580.1433 C547.4123,595.9085 502.432,615.2966 480.0449,624.9462 " fill="none" style="stroke: #000000; stroke-width: 1.0; stroke-dasharray: 1.0,3.0;"/><polygon fill="#000000" points="475.3665,626.9627,485.2147,627.0736,479.9581,624.9836,482.0482,619.727,475.3665,626.9627" style="stroke: #000000; stroke-width: 1.0;"/><path d="M506.0203,484.7803 C555.8729,490.233 643.2336,502.2479 715,525 C719.6158,526.4633 724.3257,528.1815 728.9985,530.0456 " fill="none" style="stroke: #000000; stroke-width: 1.0; stroke-dasharray: 1.0,3.0;"/><polygon fill="#000000" points="733.6541,531.9543,726.8442,524.8392,729.0278,530.0576,723.8094,532.2412,733.6541,531.9543" style="stroke: #000000; stroke-width: 1.0;"/><path d="M733.6541,580.0457 C727.476,582.6448 721.1544,585.0489 715,587 C645.6165,608.9967 561.657,620.9573 511.1082,626.6547 " fill="none" style="stroke: #000000; stroke-width: 1.0; stroke-dasharray: 1.0,3.0;"/><polygon fill="#000000" points="506.0203,627.2197,515.4068,630.2019,510.9898,626.6678,514.5238,622.2508,506.0203,627.2197" style="stroke: #000000; stroke-width: 1.0;"/><path d="M466,635.0019 C466,643.0804 466,661.522 466,672.7526 " fill="none" style="stroke: #000000; stroke-width: 1.0; stroke-dasharray: 1.0,3.0;"/><polygon fill="#000000" points="466,677.875,470,668.875,466,672.875,462,668.875,466,677.875" style="stroke: #000000; stroke-width: 1.0;"/><path d="M434.5942,686.023 C386.0418,692.5505 290.003,706.69 210,726 C203.1009,727.6652 195.98,729.5523 188.869,731.5535 " fill="none" style="stroke: #000000; stroke-width: 1.0; stroke-dasharray: 1.0,3.0;"/><polygon fill="#000000" points="183.9505,732.9559,193.7023,734.3348,188.7589,731.5849,191.5088,726.6414,183.9505,732.9559" style="stroke: #000000; stroke-width: 1.0;"/><path d="M183.9505,781.0441 C192.6816,783.5649 201.5088,785.9505 210,788 C287.3467,806.6688 379.6819,820.5049 429.6032,827.3017 " fill="none" style="stroke: #000000; stroke-width: 1.0; stroke-dasharray: 1.0,3.0;"/><polygon fill="#000000" points="434.5942,827.977,426.212,822.8061,429.6394,827.3064,425.1391,830.7338,434.5942,827.977" style="stroke: #000000; stroke-width: 1.0;"/><path d="M456.4299,686.0323 C436.5147,694.4236 389.1852,714.3658 349.7531,730.9804 " fill="none" style="stroke: #000000; stroke-width: 1.0; stroke-dasharray: 1.0,3.0;"/><polygon fill="#000000" points="344.9858,732.9891,354.8328,733.1804,349.5934,731.0476,351.7263,725.8082,344.9858,732.9891" style="stroke: #000000; stroke-width: 1.0;"/><path d="M345.3001,781.1433 C382.7162,796.9085 428.7305,816.2966 451.6323,825.9462 " fill="none" style="stroke: #000000; stroke-width: 1.0; stroke-dasharray: 1.0,3.0;"/><polygon fill="#000000" points="456.4181,827.9627,449.6776,820.7818,451.8105,826.0212,446.5711,828.154,456.4181,827.9627" style="stroke: #000000; stroke-width: 1.0;"/><path d="M466,686.0323 C466,692.7527 466,706.8821 466,720.7774 " fill="none" style="stroke: #000000; stroke-width: 1.0; stroke-dasharray: 1.0,3.0;"/><polygon fill="#000000" points="466,725.8719,470,716.8719,466,720.8719,462,716.8719,466,725.8719" style="stroke: #000000; stroke-width: 1.0;"/><path d="M466,788.3722 C466,800.7656 466,814.0768 466,822.6921 " fill="none" style="stroke: #000000; stroke-width: 1.0; stroke-dasharray: 1.0,3.0;"/><polygon fill="#000000" points="466,827.8373,470,818.8373,466,822.8373,462,818.8373,466,827.8373" style="stroke: #000000; stroke-width: 1.0;"/><path d="M475.9464,686.0323 C496.6448,694.4236 545.8356,714.3658 586.8184,730.9804 " fill="none" style="stroke: #000000; stroke-width: 1.0; stroke-dasharray: 1.0,3.0;"/><polygon fill="#000000" points="591.7732,732.9891,584.9356,725.9006,587.1396,731.1104,581.9297,733.3144,591.7732,732.9891" style="stroke: #000000; stroke-width: 1.0;"/><path d="M591.7015,781.0399 C552.6287,796.8803 504.4429,816.415 480.6771,826.0498 " fill="none" style="stroke: #000000; stroke-width: 1.0; stroke-dasharray: 1.0,3.0;"/><polygon fill="#000000" points="475.9884,827.9506,485.8319,828.2761,480.6221,826.072,482.8262,820.8622,475.9884,827.9506" style="stroke: #000000; stroke-width: 1.0;"/><path d="M506.1222,685.5895 C559.5809,691.0314 656.754,703.2328 737,726 C742.2925,727.5016 747.7154,729.2663 753.1057,731.1789 " fill="none" style="stroke: #000000; stroke-width: 1.0; stroke-dasharray: 1.0,3.0;"/><polygon fill="#000000" points="758.0421,732.9737,750.9507,726.1391,753.3431,731.2652,748.217,733.6576,758.0421,732.9737" style="stroke: #000000; stroke-width: 1.0;"/><path d="M758.0421,781.0263 C751.0477,783.6286 743.9127,786.0388 737,788 C659.2617,810.0557 565.6377,822.1957 511.2602,827.8804 " fill="none" style="stroke: #000000; stroke-width: 1.0; stroke-dasharray: 1.0,3.0;"/><polygon fill="#000000" points="506.1222,828.4105,515.4853,831.4655,511.0958,827.8972,514.664,823.5077,506.1222,828.4105" style="stroke: #000000; stroke-width: 1.0;"/><path d="M466,836.1992 C466,843.7116 466,859.9441 466,873.6035 " fill="none" style="stroke: #000000; stroke-width: 1.0; stroke-dasharray: 1.0,3.0;"/><polygon fill="#000000" points="466,878.8807,470,869.8807,466,873.8807,462,869.8807,466,878.8807" style="stroke: #000000; stroke-width: 1.0;"/></g></svg>