<?xml version="1.0" encoding="UTF-8" standalone="yes"?><svg xmlns="http://www.w3.org/2000/svg" xmlns:xlink="http://www.w3.org/1999/xlink" height="183pt" style="width:167px;height:183px;" version="1.1" viewBox="0 0 167 183" width="167pt"><defs><filter height="300%" id="f1" width="300%" x="-1" y="-1"><feGaussianBlur result="blurOut" stdDeviation="2.0"/><feColorMatrix in="blurOut" result="blurOut2" type="matrix" values="0 0 0 0 0 0 0 0 0 0 0 0 0 0 0 0 0 0 .4 0"/><feOffset dx="4.0" dy="4.0" in="blurOut2" result="blurOut3"/><feBlend in="SourceGraphic" in2="blurOut3" mode="normal"/></filter></defs><g><rect fill="#FEFECE" filter="url(#f1)" height="34.1328" rx="12.5" ry="12.5" style="stroke: #A80036; stroke-width: 1.5;" width="42" x="65" y="10"/><text fill="#000000" font-family="sans-serif" font-size="12" lengthAdjust="spacingAndGlyphs" textLength="22" x="75" y="31.6016">Etat</text><polygon fill="#FEFECE" filter="url(#f1)" points="74,64.1328,98,64.1328,110,76.1328,98,88.1328,74,88.1328,62,76.1328,74,64.1328" style="stroke: #A80036; stroke-width: 1.5;"/><text fill="#000000" font-family="sans-serif" font-size="11" lengthAdjust="spacingAndGlyphs" textLength="20" x="76" y="80.29">test</text><text fill="#000000" font-family="sans-serif" font-size="11" lengthAdjust="spacingAndGlyphs" textLength="18" x="44" y="73.8125">yes</text><text fill="#000000" font-family="sans-serif" font-size="11" lengthAdjust="spacingAndGlyphs" textLength="14" x="110" y="73.8125">no</text><rect fill="#FEFECE" filter="url(#f1)" height="34.1328" rx="12.5" ry="12.5" style="stroke: #A80036; stroke-width: 1.5;" width="62" x="10" y="108.1328"/><text fill="#000000" font-family="sans-serif" font-size="12" lengthAdjust="spacingAndGlyphs" textLength="42" x="20" y="129.7344">EtatYes</text><rect fill="#FEFECE" filter="url(#f1)" height="34.1328" rx="12.5" ry="12.5" style="stroke: #A80036; stroke-width: 1.5;" width="58" x="102" y="108.1328"/><text fill="#000000" font-family="sans-serif" font-size="12" lengthAdjust="spacingAndGlyphs" textLength="38" x="112" y="129.7344">EtatNo</text><polygon fill="#FEFECE" filter="url(#f1)" points="86,152.2656,98,164.2656,86,176.2656,74,164.2656,86,152.2656" style="stroke: #A80036; stroke-width: 1.5;"/><line style="stroke: #A80036; stroke-width: 1.5;" x1="41" x2="62" y1="76.1328" y2="76.1328"/><line style="stroke: #A80036; stroke-width: 1.5;" x1="41" x2="41" y1="76.1328" y2="108.1328"/><polygon fill="#A80036" points="37,98.1328,41,108.1328,45,98.1328,41,102.1328" style="stroke: #A80036; stroke-width: 1.0;"/><line style="stroke: #A80036; stroke-width: 1.5;" x1="110" x2="131" y1="76.1328" y2="76.1328"/><line style="stroke: #A80036; stroke-width: 1.5;" x1="131" x2="131" y1="76.1328" y2="108.1328"/><polygon fill="#A80036" points="127,98.1328,131,108.1328,135,98.1328,131,102.1328" style="stroke: #A80036; stroke-width: 1.0;"/><line style="stroke: #A80036; stroke-width: 1.5;" x1="41" x2="41" y1="142.2656" y2="164.2656"/><line style="stroke: #A80036; stroke-width: 1.5;" x1="41" x2="74" y1="164.2656" y2="164.2656"/><polygon fill="#A80036" points="64,160.2656,74,164.2656,64,168.2656,68,164.2656" style="stroke: #A80036; stroke-width: 1.0;"/><line style="stroke: #A80036; stroke-width: 1.5;" x1="131" x2="131" y1="142.2656" y2="164.2656"/><line style="stroke: #A80036; stroke-width: 1.5;" x1="98" x2="131" y1="164.2656" y2="164.2656"/><polygon fill="#A80036" points="108,160.2656,98,164.2656,108,168.2656,104,164.2656" style="stroke: #A80036; stroke-width: 1.0;"/><line style="stroke: #A80036; stroke-width: 1.5;" x1="86" x2="86" y1="44.1328" y2="64.1328"/><polygon fill="#A80036" points="82,54.1328,86,64.1328,90,54.1328,86,58.1328" style="stroke: #A80036; stroke-width: 1.0;"/></g></svg>