<?xml version="1.0" encoding="UTF-8" standalone="yes"?><svg xmlns="http://www.w3.org/2000/svg" xmlns:xlink="http://www.w3.org/1999/xlink" height="429pt" style="width:744px;height:429px;" version="1.1" viewBox="0 0 744 429" width="744pt"><defs><filter height="300%" id="f1" width="300%" x="-1" y="-1"><feGaussianBlur result="blurOut" stdDeviation="2.0"/><feColorMatrix in="blurOut" result="blurOut2" type="matrix" values="0 0 0 0 0 0 0 0 0 0 0 0 0 0 0 0 0 0 .4 0"/><feOffset dx="4.0" dy="4.0" in="blurOut2" result="blurOut3"/><feBlend in="SourceGraphic" in2="blurOut3" mode="normal"/></filter></defs><g><polygon fill="#4C4C4C" filter="url(#f1)" points="36,16,142,16,149,35.9336,384,35.9336,384,72,36,72,36,16" style="stroke: #454545; stroke-width: 2.0;"/><line style="stroke: #454545; stroke-width: 2.0;" x1="36" x2="149" y1="35.9336" y2="35.9336"/><text fill="#000000" font-family="TrebuchetMS" font-size="12" font-weight="bold" lengthAdjust="spacingAndGlyphs" textLength="100" x="39" y="30.2676">Process Standards</text><polygon fill="#4C4C4C" filter="url(#f1)" points="14,100,122,100,129,119.9336,222,119.9336,222,170,14,170,14,100" style="stroke: #454545; stroke-width: 2.0;"/><line style="stroke: #454545; stroke-width: 2.0;" x1="14" x2="129" y1="119.9336" y2="119.9336"/><text fill="#000000" font-family="TrebuchetMS" font-size="12" font-weight="bold" lengthAdjust="spacingAndGlyphs" textLength="102" x="17" y="114.2676">Modeling Methods</text><polygon fill="#4C4C4C" filter="url(#f1)" points="53,198,284,198,291,217.9336,412,217.9336,412,254,53,254,53,198" style="stroke: #454545; stroke-width: 2.0;"/><line style="stroke: #454545; stroke-width: 2.0;" x1="53" x2="291" y1="217.9336" y2="217.9336"/><text fill="#000000" font-family="TrebuchetMS" font-size="12" font-weight="bold" lengthAdjust="spacingAndGlyphs" textLength="225" x="56" y="212.2676">Architecture Description &amp; Frameworks</text><polygon fill="#4C4C4C" filter="url(#f1)" points="206,282,397,282,404,301.9336,737,301.9336,737,338,206,338,206,282" style="stroke: #454545; stroke-width: 2.0;"/><line style="stroke: #454545; stroke-width: 2.0;" x1="206" x2="404" y1="301.9336" y2="301.9336"/><text fill="#000000" font-family="TrebuchetMS" font-size="12" font-weight="bold" lengthAdjust="spacingAndGlyphs" textLength="185" x="209" y="296.2676">Modeling &amp; Simulation Standards</text><polygon fill="#4C4C4C" filter="url(#f1)" points="78,366,319,366,326,385.9336,456,385.9336,456,422,78,422,78,366" style="stroke: #454545; stroke-width: 2.0;"/><line style="stroke: #454545; stroke-width: 2.0;" x1="78" x2="326" y1="385.9336" y2="385.9336"/><text fill="#000000" font-family="TrebuchetMS" font-size="12" font-weight="bold" lengthAdjust="spacingAndGlyphs" textLength="235" x="81" y="380.2676">Metamodeling &amp; Data Exchange Standards</text><rect fill="#F8F8F8" filter="url(#f1)" height="23.9336" style="stroke: #454545; stroke-width: 1.5;" width="57" x="249.5" y="40"/><text fill="#000000" font-family="TrebuchetMS" font-size="12" lengthAdjust="spacingAndGlyphs" textLength="51" x="252.5" y="56.2676">ISO 15288</text><rect fill="#F8F8F8" filter="url(#f1)" height="23.9336" style="stroke: #454545; stroke-width: 1.5;" width="34" x="342" y="40"/><text fill="#000000" font-family="TrebuchetMS" font-size="12" lengthAdjust="spacingAndGlyphs" textLength="28" x="345" y="56.2676">CMMI</text><rect fill="#F8F8F8" filter="url(#f1)" height="23.9336" style="stroke: #454545; stroke-width: 1.5;" width="55" x="123.5" y="40"/><text fill="#000000" font-family="TrebuchetMS" font-size="12" lengthAdjust="spacingAndGlyphs" textLength="49" x="126.5" y="56.2676">IEEE 1220</text><rect fill="#F8F8F8" filter="url(#f1)" height="23.9336" style="stroke: #454545; stroke-width: 1.5;" width="44" x="44" y="40"/><text fill="#000000" font-family="TrebuchetMS" font-size="12" lengthAdjust="spacingAndGlyphs" textLength="38" x="47" y="56.2676">EIA 632</text><rect fill="#F8F8F8" filter="url(#f1)" height="37.8672" style="stroke: #454545; stroke-width: 1.5;" width="55" x="123.5" y="124"/><text fill="#000000" font-family="TrebuchetMS" font-size="12" lengthAdjust="spacingAndGlyphs" textLength="37" x="132.5" y="140.2676">Object</text><text fill="#000000" font-family="TrebuchetMS" font-size="12" lengthAdjust="spacingAndGlyphs" textLength="49" x="126.5" y="154.2012">Oriented</text><rect fill="#F8F8F8" filter="url(#f1)" height="37.8672" style="stroke: #454545; stroke-width: 1.5;" width="66" x="22" y="124"/><text fill="#000000" font-family="TrebuchetMS" font-size="12" lengthAdjust="spacingAndGlyphs" textLength="60" x="25" y="140.2676">Structured</text><text fill="#000000" font-family="TrebuchetMS" font-size="12" lengthAdjust="spacingAndGlyphs" textLength="43" x="33.5" y="154.2012">Analysis</text><rect fill="#F8F8F8" filter="url(#f1)" height="23.9336" style="stroke: #454545; stroke-width: 1.5;" width="57" x="249.5" y="222"/><text fill="#000000" font-family="TrebuchetMS" font-size="12" lengthAdjust="spacingAndGlyphs" textLength="51" x="252.5" y="238.2676">ISO 42010</text><rect fill="#F8F8F8" filter="url(#f1)" height="23.9336" style="stroke: #454545; stroke-width: 1.5;" width="62" x="342" y="222"/><text fill="#000000" font-family="TrebuchetMS" font-size="12" lengthAdjust="spacingAndGlyphs" textLength="56" x="345" y="238.2676">Zachmann</text><rect fill="#F8F8F8" filter="url(#f1)" height="23.9336" style="stroke: #454545; stroke-width: 1.5;" width="43" x="135.5" y="222"/><text fill="#000000" font-family="TrebuchetMS" font-size="12" lengthAdjust="spacingAndGlyphs" textLength="37" x="138.5" y="238.2676">MODAF</text><rect fill="#F8F8F8" filter="url(#f1)" height="23.9336" style="stroke: #454545; stroke-width: 1.5;" width="39" x="61.5" y="222"/><text fill="#000000" font-family="TrebuchetMS" font-size="12" lengthAdjust="spacingAndGlyphs" textLength="33" x="64.5" y="238.2676">DoDAF</text><rect fill="#F8F8F8" filter="url(#f1)" height="23.9336" style="stroke: #454545; stroke-width: 1.5;" width="34" x="395" y="306"/><text fill="#000000" font-family="TrebuchetMS" font-size="12" lengthAdjust="spacingAndGlyphs" textLength="28" x="398" y="322.2676">IDEF0</text><rect fill="#F8F8F8" filter="url(#f1)" height="23.9336" style="stroke: #454545; stroke-width: 1.5;" width="38" x="464" y="306"/><text fill="#000000" font-family="TrebuchetMS" font-size="12" lengthAdjust="spacingAndGlyphs" textLength="32" x="467" y="322.2676">SysML</text><rect fill="#F8F8F8" filter="url(#f1)" height="23.9336" style="stroke: #454545; stroke-width: 1.5;" width="37" x="537.5" y="306"/><text fill="#000000" font-family="TrebuchetMS" font-size="12" lengthAdjust="spacingAndGlyphs" textLength="31" x="540.5" y="322.2676">UPDM</text><rect fill="#F8F8F8" filter="url(#f1)" height="23.9336" style="stroke: #454545; stroke-width: 1.5;" width="30" x="610" y="306"/><text fill="#000000" font-family="TrebuchetMS" font-size="12" lengthAdjust="spacingAndGlyphs" textLength="24" x="613" y="322.2676">OWL</text><rect fill="#F8F8F8" filter="url(#f1)" height="23.9336" style="stroke: #454545; stroke-width: 1.5;" width="54" x="675" y="306"/><text fill="#000000" font-family="TrebuchetMS" font-size="12" lengthAdjust="spacingAndGlyphs" textLength="48" x="678" y="322.2676">Modelica</text><rect fill="#F8F8F8" filter="url(#f1)" height="23.9336" style="stroke: #454545; stroke-width: 1.5;" width="27" x="249.5" y="306"/><text fill="#000000" font-family="TrebuchetMS" font-size="12" lengthAdjust="spacingAndGlyphs" textLength="21" x="252.5" y="322.2676">HLA</text><rect fill="#F8F8F8" filter="url(#f1)" height="23.9336" style="stroke: #454545; stroke-width: 1.5;" width="48" x="312" y="306"/><text fill="#000000" font-family="TrebuchetMS" font-size="12" lengthAdjust="spacingAndGlyphs" textLength="42" x="315" y="322.2676">MathML</text><rect fill="#F8F8F8" filter="url(#f1)" height="23.9336" style="stroke: #454545; stroke-width: 1.5;" width="28" x="151" y="390"/><text fill="#000000" font-family="TrebuchetMS" font-size="12" lengthAdjust="spacingAndGlyphs" textLength="22" x="154" y="406.2676">QVT</text><rect fill="#F8F8F8" filter="url(#f1)" height="23.9336" style="stroke: #454545; stroke-width: 1.5;" width="29" x="86.5" y="390"/><text fill="#000000" font-family="TrebuchetMS" font-size="12" lengthAdjust="spacingAndGlyphs" textLength="23" x="89.5" y="406.2676">MOF</text><rect fill="#F8F8F8" filter="url(#f1)" height="23.9336" style="stroke: #454545; stroke-width: 1.5;" width="25" x="422.5" y="390"/><text fill="#000000" font-family="TrebuchetMS" font-size="12" lengthAdjust="spacingAndGlyphs" textLength="19" x="425.5" y="406.2676">XMI</text><rect fill="#F8F8F8" filter="url(#f1)" height="23.9336" style="stroke: #454545; stroke-width: 1.5;" width="70" x="249" y="390"/><text fill="#000000" font-family="TrebuchetMS" font-size="12" lengthAdjust="spacingAndGlyphs" textLength="64" x="252" y="406.2676">STEP/AP233</text><rect fill="#F8F8F8" filter="url(#f1)" height="23.9336" style="stroke: #454545; stroke-width: 1.5;" width="33" x="354.5" y="390"/><text fill="#000000" font-family="TrebuchetMS" font-size="12" lengthAdjust="spacingAndGlyphs" textLength="27" x="357.5" y="406.2676">OSLC</text><path d="M214,71.9991 C214,78.8613 214,86.8665 214,94.9789 " fill="none" style="stroke: #000000; stroke-width: 1.0;"/><polygon fill="#000000" points="214,100.0045,218,91.0045,214,95.0045,210,91.0045,214,100.0045" style="stroke: #000000; stroke-width: 1.0;"/><path d="M214,169.9986 C214,177.1503 214,185.0371 214,192.7588 " fill="none" style="stroke: #000000; stroke-width: 1.0;"/><polygon fill="#000000" points="214,198.0022,218,189.0022,214,193.0022,210,189.0022,214,198.0022" style="stroke: #000000; stroke-width: 1.0;"/><path d="M214,253.9956 C214,260.8188 214,268.7217 214,276.5966 " fill="none" style="stroke: #000000; stroke-width: 1.0;"/><polygon fill="#000000" points="214,282.0022,218,273.0022,214,277.0022,210,273.0022,214,282.0022" style="stroke: #000000; stroke-width: 1.0;"/><path d="M214,337.9956 C214,344.8188 214,352.7217 214,360.5966 " fill="none" style="stroke: #000000; stroke-width: 1.0;"/><polygon fill="#000000" points="214,366.0022,218,357.0022,214,361.0022,210,357.0022,214,366.0022" style="stroke: #000000; stroke-width: 1.0;"/></g></svg>