<?xml version="1.0" encoding="UTF-8" standalone="no"?><svg xmlns="http://www.w3.org/2000/svg" xmlns:xlink="http://www.w3.org/1999/xlink" contentScriptType="application/ecmascript" contentStyleType="text/css" height="603px" preserveAspectRatio="none" style="width:341px;height:603px;" version="1.1" viewBox="0 0 341 603" width="341px" zoomAndPan="magnify"><defs><filter height="300%" id="fkkyla2x7t5ie" width="300%" x="-1" y="-1"><feGaussianBlur result="blurOut" stdDeviation="2.0"/><feColorMatrix in="blurOut" result="blurOut2" type="matrix" values="0 0 0 0 0 0 0 0 0 0 0 0 0 0 0 0 0 0 .4 0"/><feOffset dx="4.0" dy="4.0" in="blurOut2" result="blurOut3"/><feBlend in="SourceGraphic" in2="blurOut3" mode="normal"/></filter></defs><g><ellipse cx="186" cy="18" fill="#000000" filter="url(#fkkyla2x7t5ie)" rx="10" ry="10" style="stroke: none; stroke-width: 1.0;"/><rect fill="#000000" filter="url(#fkkyla2x7t5ie)" height="8" style="stroke: none; stroke-width: 1.0;" width="80" x="146" y="68"/><rect fill="#FEFECE" filter="url(#fkkyla2x7t5ie)" height="62.3984" rx="12.5" ry="12.5" style="stroke: #A80036; stroke-width: 1.5;" width="102" x="6" y="218"/><text fill="#000000" font-family="sans-serif" font-size="12" lengthAdjust="spacingAndGlyphs" textLength="8" x="53" y="239.6016">6</text><text fill="#000000" font-family="sans-serif" font-size="12" lengthAdjust="spacingAndGlyphs" textLength="61" x="24.5" y="253.7344">Traçabilité</text><text fill="#000000" font-family="sans-serif" font-size="12" lengthAdjust="spacingAndGlyphs" textLength="82" x="16" y="267.8672">des exigences</text><rect fill="#000000" filter="url(#fkkyla2x7t5ie)" height="8" style="stroke: none; stroke-width: 1.0;" width="80" x="112" y="524"/><rect fill="#FEFECE" filter="url(#fkkyla2x7t5ie)" height="62.3984" rx="12.5" ry="12.5" style="stroke: #A80036; stroke-width: 1.5;" width="89" x="142" y="116"/><text fill="#000000" font-family="sans-serif" font-size="12" lengthAdjust="spacingAndGlyphs" textLength="8" x="182.5" y="137.6016">1</text><text fill="#000000" font-family="sans-serif" font-size="12" lengthAdjust="spacingAndGlyphs" textLength="56" x="156.5" y="151.7344">Organiser</text><text fill="#000000" font-family="sans-serif" font-size="12" lengthAdjust="spacingAndGlyphs" textLength="69" x="152" y="165.8672">les modèles</text><rect fill="#FEFECE" filter="url(#fkkyla2x7t5ie)" height="62.3984" rx="12.5" ry="12.5" style="stroke: #A80036; stroke-width: 1.5;" width="117" x="128" y="218"/><text fill="#000000" font-family="sans-serif" font-size="12" lengthAdjust="spacingAndGlyphs" textLength="8" x="182.5" y="239.6016">2</text><text fill="#000000" font-family="sans-serif" font-size="12" lengthAdjust="spacingAndGlyphs" textLength="69" x="150" y="253.7344">Analyser les</text><text fill="#000000" font-family="sans-serif" font-size="12" lengthAdjust="spacingAndGlyphs" textLength="97" x="138" y="267.8672">exigences clients</text><rect fill="#FEFECE" filter="url(#fkkyla2x7t5ie)" height="62.3984" rx="12.5" ry="12.5" style="stroke: #A80036; stroke-width: 1.5;" width="128" x="88" y="320"/><text fill="#000000" font-family="sans-serif" font-size="12" lengthAdjust="spacingAndGlyphs" textLength="8" x="148" y="341.6016">3</text><text fill="#000000" font-family="sans-serif" font-size="12" lengthAdjust="spacingAndGlyphs" textLength="69" x="115.5" y="355.7344">Spécifier les</text><text fill="#000000" font-family="sans-serif" font-size="12" lengthAdjust="spacingAndGlyphs" textLength="108" x="98" y="369.8672">exigences système</text><rect fill="#FEFECE" filter="url(#fkkyla2x7t5ie)" height="62.3984" rx="12.5" ry="12.5" style="stroke: #A80036; stroke-width: 1.5;" width="128" x="88" y="422"/><text fill="#000000" font-family="sans-serif" font-size="12" lengthAdjust="spacingAndGlyphs" textLength="8" x="148" y="443.6016">4</text><text fill="#000000" font-family="sans-serif" font-size="12" lengthAdjust="spacingAndGlyphs" textLength="67" x="116.5" y="457.7344">Générer les</text><text fill="#000000" font-family="sans-serif" font-size="12" lengthAdjust="spacingAndGlyphs" textLength="108" x="98" y="471.8672">solutions possibles</text><rect fill="#FEFECE" filter="url(#fkkyla2x7t5ie)" height="62.3984" rx="12.5" ry="12.5" style="stroke: #A80036; stroke-width: 1.5;" width="94" x="236" y="320"/><text fill="#000000" font-family="sans-serif" font-size="12" lengthAdjust="spacingAndGlyphs" textLength="8" x="279" y="341.6016">5</text><text fill="#000000" font-family="sans-serif" font-size="12" lengthAdjust="spacingAndGlyphs" textLength="69" x="246.5" y="355.7344">Analyses de</text><text fill="#000000" font-family="sans-serif" font-size="12" lengthAdjust="spacingAndGlyphs" textLength="74" x="246" y="369.8672">performance</text><ellipse cx="152" cy="582" fill="none" filter="url(#fkkyla2x7t5ie)" rx="10" ry="10" style="stroke: #000000; stroke-width: 1.0;"/><ellipse cx="152.5" cy="582.5" fill="#000000" rx="6" ry="6" style="stroke: none; stroke-width: 1.0;"/><!--link start to B1--><path d="M186,28 C186,38 186,53 186,63 " fill="none" id="start-B1" style="stroke: #A80036; stroke-width: 1.0;"/><polygon fill="#A80036" points="186,68,190,59,186,63,182,59,186,68" style="stroke: #A80036; stroke-width: 1.0;"/><!--link B1 to 6\nTraçabilité \ndes exigences--><path d="M180,76 C169,83 146,99 132,116 C107,145 86,185 73,213 " fill="none" id="B1-6\nTraçabilité \ndes exigences" style="stroke: #A80036; stroke-width: 1.0;"/><polygon fill="#A80036" points="71,218,78.0567,211.1296,72.8572,213.3577,70.629,208.1581,71,218" style="stroke: #A80036; stroke-width: 1.0;"/><!--link 6\nTraçabilité \ndes exigences to B2--><path d="M52,280 C45,328 39,421 78,484 C91,504 115,516 133,522 " fill="none" id="6\nTraçabilité \ndes exigences-B2" style="stroke: #A80036; stroke-width: 1.0;"/><polygon fill="#A80036" points="138,524,131.1296,516.9433,133.3577,522.1428,128.1581,524.371,138,524" style="stroke: #A80036; stroke-width: 1.0;"/><!--link B1 to 1\nOrganiser \nles modèles--><path d="M186,76 C186,83 186,97 186,111 " fill="none" id="B1-1\nOrganiser \nles modèles" style="stroke: #A80036; stroke-width: 1.0;"/><polygon fill="#A80036" points="186,116,190,107,186,111,182,107,186,116" style="stroke: #A80036; stroke-width: 1.0;"/><!--link 1\nOrganiser \nles modèles to 2\nAnalyser les \nexigences clients--><path d="M186,178 C186,189 186,201 186,213 " fill="none" id="1\nOrganiser \nles modèles-2\nAnalyser les \nexigences clients" style="stroke: #A80036; stroke-width: 1.0;"/><polygon fill="#A80036" points="186,218,190,209,186,213,182,209,186,218" style="stroke: #A80036; stroke-width: 1.0;"/><!--link 2\nAnalyser les \nexigences clients to 3\nSpécifier les \nexigences système--><path d="M176,280 C173,291 168,304 165,315 " fill="none" id="2\nAnalyser les \nexigences clients-3\nSpécifier les \nexigences système" style="stroke: #A80036; stroke-width: 1.0;"/><polygon fill="#A80036" points="163,320,170.0564,313.1293,164.857,315.3576,162.6286,310.1581,163,320" style="stroke: #A80036; stroke-width: 1.0;"/><!--link 3\nSpécifier les \nexigences système to 4\nGénérer les \nsolutions possibles--><path d="M152,382 C152,393 152,405 152,417 " fill="none" id="3\nSpécifier les \nexigences système-4\nGénérer les \nsolutions possibles" style="stroke: #A80036; stroke-width: 1.0;"/><polygon fill="#A80036" points="152,422,156,413,152,417,148,413,152,422" style="stroke: #A80036; stroke-width: 1.0;"/><!--link 4\nGénérer les \nsolutions possibles to B2--><path d="M152,484 C152,497 152,510 152,519 " fill="none" id="4\nGénérer les \nsolutions possibles-B2" style="stroke: #A80036; stroke-width: 1.0;"/><polygon fill="#A80036" points="152,524,156,515,152,519,148,515,152,524" style="stroke: #A80036; stroke-width: 1.0;"/><!--link B1 to 5\nAnalyses de \nperformance--><path d="M194,76 C206,83 229,97 240,116 C277,179 284,267 284,315 " fill="none" id="B1-5\nAnalyses de \nperformance" style="stroke: #A80036; stroke-width: 1.0;"/><polygon fill="#A80036" points="284,320,288,311,284,315,280,311,284,320" style="stroke: #A80036; stroke-width: 1.0;"/><!--link 5\nAnalyses de \nperformance to B2--><path d="M276,382 C267,411 252,455 226,484 C210,502 184,515 168,522 " fill="none" id="5\nAnalyses de \nperformance-B2" style="stroke: #A80036; stroke-width: 1.0;"/><polygon fill="#A80036" points="163,524,172.8419,524.371,167.6423,522.1428,169.8704,516.9433,163,524" style="stroke: #A80036; stroke-width: 1.0;"/><!--link B2 to end--><path d="M152,532 C152,540 152,555 152,567 " fill="none" id="B2-end" style="stroke: #A80036; stroke-width: 1.0;"/><polygon fill="#A80036" points="152,572,156,563,152,567,148,563,152,572" style="stroke: #A80036; stroke-width: 1.0;"/><!--
@startuml
(*) - -> ===B1===
- -> "6\nTraçabilité \ndes exigences"
- -> ===B2===
===B1=== - -> "1\nOrganiser \nles modèles"
- -> "2\nAnalyser les \nexigences clients"
- -> "3\nSpécifier les \nexigences système"
- -> "4\nGénérer les \nsolutions possibles"
- -> ===B2===
===B1=== - -> "5\nAnalyses de \nperformance"
- -> ===B2===

- -> (*)
@enduml

PlantUML version 1.2017.15(Mon Jul 03 18:45:34 CEST 2017)
(APACHE source distribution)
Java Runtime: Java(TM) SE Runtime Environment
JVM: Java HotSpot(TM) 64-Bit Server VM
Java Version: 1.8.0_31-b13
Operating System: Mac OS X
OS Version: 10.13.1
Default Encoding: UTF-8
Language: fr
Country: FR
--></g></svg>