<?xml version="1.0" encoding="UTF-8" standalone="no"?><svg xmlns="http://www.w3.org/2000/svg" xmlns:xlink="http://www.w3.org/1999/xlink" contentScriptType="application/ecmascript" contentStyleType="text/css" height="547px" preserveAspectRatio="none" style="width:341px;height:547px;" version="1.1" viewBox="0 0 341 547" width="341px" zoomAndPan="magnify"><defs><filter height="300%" id="faar1g4frgrw9" width="300%" x="-1" y="-1"><feGaussianBlur result="blurOut" stdDeviation="2.0"/><feColorMatrix in="blurOut" result="blurOut2" type="matrix" values="0 0 0 0 0 0 0 0 0 0 0 0 0 0 0 0 0 0 .4 0"/><feOffset dx="4.0" dy="4.0" in="blurOut2" result="blurOut3"/><feBlend in="SourceGraphic" in2="blurOut3" mode="normal"/></filter></defs><g><ellipse cx="187" cy="18" fill="#000000" filter="url(#faar1g4frgrw9)" rx="10" ry="10" style="stroke: none; stroke-width: 1.0;"/><rect fill="#000000" filter="url(#faar1g4frgrw9)" height="8" style="stroke: none; stroke-width: 1.0;" width="80" x="147" y="68"/><rect fill="#FEFECE" filter="url(#faar1g4frgrw9)" height="48.2656" rx="12.5" ry="12.5" style="stroke: #A80036; stroke-width: 1.5;" width="102" x="6" y="204"/><text fill="#000000" font-family="sans-serif" font-size="12" lengthAdjust="spacingAndGlyphs" textLength="61" x="24.5" y="225.6016">Traçabilité</text><text fill="#000000" font-family="sans-serif" font-size="12" lengthAdjust="spacingAndGlyphs" textLength="82" x="16" y="239.7344">des exigences</text><rect fill="#000000" filter="url(#faar1g4frgrw9)" height="8" style="stroke: none; stroke-width: 1.0;" width="80" x="112" y="468"/><rect fill="#FEFECE" filter="url(#faar1g4frgrw9)" height="48.2656" rx="12.5" ry="12.5" style="stroke: #A80036; stroke-width: 1.5;" width="89" x="142.5" y="116"/><text fill="#000000" font-family="sans-serif" font-size="12" lengthAdjust="spacingAndGlyphs" textLength="56" x="157" y="137.6016">Organiser</text><text fill="#000000" font-family="sans-serif" font-size="12" lengthAdjust="spacingAndGlyphs" textLength="69" x="152.5" y="151.7344">les modèles</text><rect fill="#FEFECE" filter="url(#faar1g4frgrw9)" height="48.2656" rx="12.5" ry="12.5" style="stroke: #A80036; stroke-width: 1.5;" width="117" x="128.5" y="204"/><text fill="#000000" font-family="sans-serif" font-size="12" lengthAdjust="spacingAndGlyphs" textLength="69" x="150.5" y="225.6016">Analyser les</text><text fill="#000000" font-family="sans-serif" font-size="12" lengthAdjust="spacingAndGlyphs" textLength="97" x="138.5" y="239.7344">exigences clients</text><rect fill="#FEFECE" filter="url(#faar1g4frgrw9)" height="48.2656" rx="12.5" ry="12.5" style="stroke: #A80036; stroke-width: 1.5;" width="128" x="88" y="292"/><text fill="#000000" font-family="sans-serif" font-size="12" lengthAdjust="spacingAndGlyphs" textLength="69" x="115.5" y="313.6016">Spécifier les</text><text fill="#000000" font-family="sans-serif" font-size="12" lengthAdjust="spacingAndGlyphs" textLength="108" x="98" y="327.7344">exigences système</text><rect fill="#FEFECE" filter="url(#faar1g4frgrw9)" height="48.2656" rx="12.5" ry="12.5" style="stroke: #A80036; stroke-width: 1.5;" width="128" x="88" y="380"/><text fill="#000000" font-family="sans-serif" font-size="12" lengthAdjust="spacingAndGlyphs" textLength="67" x="116.5" y="401.6016">Générer les</text><text fill="#000000" font-family="sans-serif" font-size="12" lengthAdjust="spacingAndGlyphs" textLength="108" x="98" y="415.7344">solutions possibles</text><rect fill="#FEFECE" filter="url(#faar1g4frgrw9)" height="48.2656" rx="12.5" ry="12.5" style="stroke: #A80036; stroke-width: 1.5;" width="94" x="236" y="292"/><text fill="#000000" font-family="sans-serif" font-size="12" lengthAdjust="spacingAndGlyphs" textLength="69" x="246.5" y="313.6016">Analyses de</text><text fill="#000000" font-family="sans-serif" font-size="12" lengthAdjust="spacingAndGlyphs" textLength="74" x="246" y="327.7344">performance</text><ellipse cx="152" cy="526" fill="none" filter="url(#faar1g4frgrw9)" rx="10" ry="10" style="stroke: #000000; stroke-width: 1.0;"/><ellipse cx="152.5" cy="526.5" fill="#000000" rx="6" ry="6" style="stroke: none; stroke-width: 1.0;"/><!--link start to B1--><path d="M187,28.412 C187,38.361 187,53.216 187,62.757 " fill="none" id="start-B1" style="stroke: #A80036; stroke-width: 1.0;"/><polygon fill="#A80036" points="187,67.919,191,58.919,187,62.919,183,58.919,187,67.919" style="stroke: #A80036; stroke-width: 1.0;"/><!--link B1 to Traçabilité \ndes exigences--><path d="M180.712,76.081 C169.924,83.277 147.553,99.071 132,116 C108.4,141.688 86.8553,175.434 72.9735,199.145 " fill="none" id="B1-Traçabilité \ndes exigences" style="stroke: #A80036; stroke-width: 1.0;"/><polygon fill="#A80036" points="70.301,203.748,78.2787,197.9725,72.8111,199.4237,71.3599,193.9562,70.301,203.748" style="stroke: #A80036; stroke-width: 1.0;"/><!--link Traçabilité \ndes exigences to B2--><path d="M53.0399,252.093 C47.7915,292.078 42.891,373.163 78,428 C90.6354,447.7352 115.549,459.8006 132.963,466.1886 " fill="none" id="Traçabilité \ndes exigences-B2" style="stroke: #A80036; stroke-width: 1.0;"/><polygon fill="#A80036" points="138.105,467.991,130.9353,461.2386,133.3866,466.3367,128.2884,468.788,138.105,467.991" style="stroke: #A80036; stroke-width: 1.0;"/><!--link B1 to Organiser \nles modèles--><path d="M187,76.05 C187,82.865 187,97.195 187,110.565 " fill="none" id="B1-Organiser \nles modèles" style="stroke: #A80036; stroke-width: 1.0;"/><polygon fill="#A80036" points="187,115.819,191,106.819,187,110.819,183,106.819,187,115.819" style="stroke: #A80036; stroke-width: 1.0;"/><!--link Organiser \nles modèles to Analyser les \nexigences clients--><path d="M187,164.046 C187,174.814 187,187.605 187,198.907 " fill="none" id="Organiser \nles modèles-Analyser les \nexigences clients" style="stroke: #A80036; stroke-width: 1.0;"/><polygon fill="#A80036" points="187,203.983,191,194.983,187,198.983,183,194.983,187,203.983" style="stroke: #A80036; stroke-width: 1.0;"/><!--link Analyser les \nexigences clients to Spécifier les \nexigences système--><path d="M177.436,252.046 C173.115,262.911 167.975,275.835 163.45,287.212 " fill="none" id="Analyser les \nexigences clients-Spécifier les \nexigences système" style="stroke: #A80036; stroke-width: 1.0;"/><polygon fill="#A80036" points="161.552,291.983,168.5942,285.0977,163.3993,287.3368,161.1602,282.1419,161.552,291.983" style="stroke: #A80036; stroke-width: 1.0;"/><!--link Spécifier les \nexigences système to Générer les \nsolutions possibles--><path d="M152,340.046 C152,350.814 152,363.605 152,374.907 " fill="none" id="Spécifier les \nexigences système-Générer les \nsolutions possibles" style="stroke: #A80036; stroke-width: 1.0;"/><polygon fill="#A80036" points="152,379.983,156,370.983,152,374.983,148,370.983,152,379.983" style="stroke: #A80036; stroke-width: 1.0;"/><!--link Générer les \nsolutions possibles to B2--><path d="M152,428.166 C152,440.0761 152,453.748 152,462.6118 " fill="none" id="Générer les \nsolutions possibles-B2" style="stroke: #A80036; stroke-width: 1.0;"/><polygon fill="#A80036" points="152,467.8994,156,458.8994,152,462.8994,148,458.8994,152,467.8994" style="stroke: #A80036; stroke-width: 1.0;"/><!--link B1 to Analyses de \nperformance--><path d="M195.058,76.192 C207.088,82.894 229.552,97.202 241,116 C273.919,170.05 281.354,245.875 282.837,286.892 " fill="none" id="B1-Analyses de \nperformance" style="stroke: #A80036; stroke-width: 1.0;"/><polygon fill="#A80036" points="282.996,291.959,286.7137,282.8388,282.8403,286.9614,278.7176,283.0879,282.996,291.959" style="stroke: #A80036; stroke-width: 1.0;"/><!--link Analyses de \nperformance to B2--><path d="M275.196,340.231 C266.364,364.672 250.009,402.36 226,428 C209.242,445.8961 183.578,458.923 167.301,465.9731 " fill="none" id="Analyses de \nperformance-B2" style="stroke: #A80036; stroke-width: 1.0;"/><polygon fill="#A80036" points="162.571,467.968,172.4181,468.1539,167.1776,466.0239,169.3075,460.7834,162.571,467.968" style="stroke: #A80036; stroke-width: 1.0;"/><!--link B2 to end--><path d="M152,476.2373 C152,483.5681 152,498.9582 152,510.6944 " fill="none" id="B2-end" style="stroke: #A80036; stroke-width: 1.0;"/><polygon fill="#A80036" points="152,515.7875,156,506.7875,152,510.7875,148,506.7875,152,515.7875" style="stroke: #A80036; stroke-width: 1.0;"/><!--
@startuml
(*) - -> ===B1===
- -> "Traçabilité \ndes exigences"
- -> ===B2===
===B1=== - -> "Organiser \nles modèles"
- -> "Analyser les \nexigences clients"
- -> "Spécifier les \nexigences système"
- -> "Générer les \nsolutions possibles"
- -> ===B2===
===B1=== - -> "Analyses de \nperformance"
- -> ===B2===

- -> (*)
@enduml

PlantUML version 1.2017.15(Mon Jul 03 18:45:34 CEST 2017)
(APACHE source distribution)
Java Runtime: Java(TM) SE Runtime Environment
JVM: Java HotSpot(TM) 64-Bit Server VM
Java Version: 1.8.0_144-b01
Operating System: Mac OS X
OS Version: 10.12.6
Default Encoding: UTF-8
Language: fr
Country: FR
--></g></svg>