<?xml version="1.0" encoding="UTF-8" standalone="no"?><svg xmlns="http://www.w3.org/2000/svg" xmlns:xlink="http://www.w3.org/1999/xlink" contentScriptType="application/ecmascript" contentStyleType="text/css" height="547px" preserveAspectRatio="none" style="width:341px;height:547px;" version="1.1" viewBox="0 0 341 547" width="341px" zoomAndPan="magnify"><defs><filter height="300%" id="faar1g4frgrw9" width="300%" x="-1" y="-1"><feGaussianBlur result="blurOut" stdDeviation="2.0"/><feColorMatrix in="blurOut" result="blurOut2" type="matrix" values="0 0 0 0 0 0 0 0 0 0 0 0 0 0 0 0 0 0 .4 0"/><feOffset dx="4.0" dy="4.0" in="blurOut2" result="blurOut3"/><feBlend in="SourceGraphic" in2="blurOut3" mode="normal"/></filter></defs><g><ellipse cx="186" cy="18" fill="#000000" filter="url(#faar1g4frgrw9)" rx="10" ry="10" style="stroke: none; stroke-width: 1.0;"/><rect fill="#000000" filter="url(#faar1g4frgrw9)" height="8" style="stroke: none; stroke-width: 1.0;" width="80" x="146" y="68"/><rect fill="#FEFECE" filter="url(#faar1g4frgrw9)" height="48.2656" rx="12.5" ry="12.5" style="stroke: #A80036; stroke-width: 1.5;" width="102" x="6" y="204"/><text fill="#000000" font-family="sans-serif" font-size="12" lengthAdjust="spacingAndGlyphs" textLength="61" x="24.5" y="225.6016">Traçabilité</text><text fill="#000000" font-family="sans-serif" font-size="12" lengthAdjust="spacingAndGlyphs" textLength="82" x="16" y="239.7344">des exigences</text><rect fill="#000000" filter="url(#faar1g4frgrw9)" height="8" style="stroke: none; stroke-width: 1.0;" width="80" x="112" y="468"/><rect fill="#FEFECE" filter="url(#faar1g4frgrw9)" height="48.2656" rx="12.5" ry="12.5" style="stroke: #A80036; stroke-width: 1.5;" width="89" x="142" y="116"/><text fill="#000000" font-family="sans-serif" font-size="12" lengthAdjust="spacingAndGlyphs" textLength="56" x="156.5" y="137.6016">Organiser</text><text fill="#000000" font-family="sans-serif" font-size="12" lengthAdjust="spacingAndGlyphs" textLength="69" x="152" y="151.7344">les modèles</text><rect fill="#FEFECE" filter="url(#faar1g4frgrw9)" height="48.2656" rx="12.5" ry="12.5" style="stroke: #A80036; stroke-width: 1.5;" width="117" x="128" y="204"/><text fill="#000000" font-family="sans-serif" font-size="12" lengthAdjust="spacingAndGlyphs" textLength="69" x="150" y="225.6016">Analyser les</text><text fill="#000000" font-family="sans-serif" font-size="12" lengthAdjust="spacingAndGlyphs" textLength="97" x="138" y="239.7344">exigences clients</text><rect fill="#FEFECE" filter="url(#faar1g4frgrw9)" height="48.2656" rx="12.5" ry="12.5" style="stroke: #A80036; stroke-width: 1.5;" width="128" x="88" y="292"/><text fill="#000000" font-family="sans-serif" font-size="12" lengthAdjust="spacingAndGlyphs" textLength="69" x="115.5" y="313.6016">Spécifier les</text><text fill="#000000" font-family="sans-serif" font-size="12" lengthAdjust="spacingAndGlyphs" textLength="108" x="98" y="327.7344">exigences système</text><rect fill="#FEFECE" filter="url(#faar1g4frgrw9)" height="48.2656" rx="12.5" ry="12.5" style="stroke: #A80036; stroke-width: 1.5;" width="128" x="88" y="380"/><text fill="#000000" font-family="sans-serif" font-size="12" lengthAdjust="spacingAndGlyphs" textLength="67" x="116.5" y="401.6016">Générer les</text><text fill="#000000" font-family="sans-serif" font-size="12" lengthAdjust="spacingAndGlyphs" textLength="108" x="98" y="415.7344">solutions possibles</text><rect fill="#FEFECE" filter="url(#faar1g4frgrw9)" height="48.2656" rx="12.5" ry="12.5" style="stroke: #A80036; stroke-width: 1.5;" width="94" x="236" y="292"/><text fill="#000000" font-family="sans-serif" font-size="12" lengthAdjust="spacingAndGlyphs" textLength="69" x="246.5" y="313.6016">Analyses de</text><text fill="#000000" font-family="sans-serif" font-size="12" lengthAdjust="spacingAndGlyphs" textLength="74" x="246" y="327.7344">performance</text><ellipse cx="152" cy="526" fill="none" filter="url(#faar1g4frgrw9)" rx="10" ry="10" style="stroke: #000000; stroke-width: 1.0;"/><ellipse cx="152.5" cy="526.5" fill="#000000" rx="6" ry="6" style="stroke: none; stroke-width: 1.0;"/><!--link start to B1--><path d="M186,28 C186,38 186,53 186,63 " fill="none" id="start-B1" style="stroke: #A80036; stroke-width: 1.0;"/><polygon fill="#A80036" points="186,68,190,59,186,63,182,59,186,68" style="stroke: #A80036; stroke-width: 1.0;"/><!--link B1 to Traçabilité \ndes exigences--><path d="M180,76 C169,83 147,100 132,116 C108,142 87,176 73,200 " fill="none" id="B1-Traçabilité \ndes exigences" style="stroke: #A80036; stroke-width: 1.0;"/><polygon fill="#A80036" points="70,204,78.6,199.2,73,200,72.2,194.4,70,204" style="stroke: #A80036; stroke-width: 1.0;"/><!--link Traçabilité \ndes exigences to B2--><path d="M53,252 C48,292 43,373 78,428 C91,448 115,460 133,466 " fill="none" id="Traçabilité \ndes exigences-B2" style="stroke: #A80036; stroke-width: 1.0;"/><polygon fill="#A80036" points="138,468,131.1296,460.9433,133.3577,466.1428,128.1581,468.371,138,468" style="stroke: #A80036; stroke-width: 1.0;"/><!--link B1 to Organiser \nles modèles--><path d="M186,76 C186,83 186,97 186,111 " fill="none" id="B1-Organiser \nles modèles" style="stroke: #A80036; stroke-width: 1.0;"/><polygon fill="#A80036" points="186,116,190,107,186,111,182,107,186,116" style="stroke: #A80036; stroke-width: 1.0;"/><!--link Organiser \nles modèles to Analyser les \nexigences clients--><path d="M186,164 C186,174 186,188 186,199 " fill="none" id="Organiser \nles modèles-Analyser les \nexigences clients" style="stroke: #A80036; stroke-width: 1.0;"/><polygon fill="#A80036" points="186,204,190,195,186,199,182,195,186,204" style="stroke: #A80036; stroke-width: 1.0;"/><!--link Analyser les \nexigences clients to Spécifier les \nexigences système--><path d="M177,252 C173,262 167,276 163,287 " fill="none" id="Analyser les \nexigences clients-Spécifier les \nexigences système" style="stroke: #A80036; stroke-width: 1.0;"/><polygon fill="#A80036" points="161,292,168.0564,285.1293,162.857,287.3576,160.6286,282.1581,161,292" style="stroke: #A80036; stroke-width: 1.0;"/><!--link Spécifier les \nexigences système to Générer les \nsolutions possibles--><path d="M152,340 C152,350 152,364 152,375 " fill="none" id="Spécifier les \nexigences système-Générer les \nsolutions possibles" style="stroke: #A80036; stroke-width: 1.0;"/><polygon fill="#A80036" points="152,380,156,371,152,375,148,371,152,380" style="stroke: #A80036; stroke-width: 1.0;"/><!--link Générer les \nsolutions possibles to B2--><path d="M152,428 C152,440 152,454 152,463 " fill="none" id="Générer les \nsolutions possibles-B2" style="stroke: #A80036; stroke-width: 1.0;"/><polygon fill="#A80036" points="152,468,156,459,152,463,148,459,152,468" style="stroke: #A80036; stroke-width: 1.0;"/><!--link B1 to Analyses de \nperformance--><path d="M194,76 C205,83 228,97 240,116 C273,171 280,246 283,287 " fill="none" id="B1-Analyses de \nperformance" style="stroke: #A80036; stroke-width: 1.0;"/><polygon fill="#A80036" points="283,292,287,283,283,287,279,283,283,292" style="stroke: #A80036; stroke-width: 1.0;"/><!--link Analyses de \nperformance to B2--><path d="M275,340 C266,365 250,403 226,428 C209,446 183,459 167,466 " fill="none" id="Analyses de \nperformance-B2" style="stroke: #A80036; stroke-width: 1.0;"/><polygon fill="#A80036" points="162,468,171.8419,468.371,166.6423,466.1428,168.8704,460.9433,162,468" style="stroke: #A80036; stroke-width: 1.0;"/><!--link B2 to end--><path d="M152,476 C152,484 152,499 152,511 " fill="none" id="B2-end" style="stroke: #A80036; stroke-width: 1.0;"/><polygon fill="#A80036" points="152,516,156,507,152,511,148,507,152,516" style="stroke: #A80036; stroke-width: 1.0;"/><!--
@startuml
(*) - -> ===B1===
- -> "Traçabilité \ndes exigences"
- -> ===B2===
===B1=== - -> "Organiser \nles modèles"
- -> "Analyser les \nexigences clients"
- -> "Spécifier les \nexigences système"
- -> "Générer les \nsolutions possibles"
- -> ===B2===
===B1=== - -> "Analyses de \nperformance"
- -> ===B2===

- -> (*)
@enduml

PlantUML version 1.2017.15(Mon Jul 03 18:45:34 CEST 2017)
(APACHE source distribution)
Java Runtime: Java(TM) SE Runtime Environment
JVM: Java HotSpot(TM) 64-Bit Server VM
Java Version: 1.8.0_31-b13
Operating System: Mac OS X
OS Version: 10.13.1
Default Encoding: UTF-8
Language: fr
Country: FR
--></g></svg>