<?xml version="1.0" encoding="UTF-8"?><svg xmlns="http://www.w3.org/2000/svg" xmlns:xlink="http://www.w3.org/1999/xlink" stroke-dasharray="none" shape-rendering="auto" font-family="'Dialog'" width="877" text-rendering="auto" fill-opacity="1" contentScriptType="text/ecmascript" color-interpolation="auto" color-rendering="auto" preserveAspectRatio="xMidYMid meet" font-size="12" viewBox="0 0 877 1020" fill="black" stroke="black" image-rendering="auto" stroke-miterlimit="10" zoomAndPan="magnify" version="1.0" stroke-linecap="square" stroke-linejoin="miter" contentStyleType="text/css" font-style="normal" height="1020" stroke-width="1" stroke-dashoffset="0" font-weight="normal" stroke-opacity="1">
<!--Generated by the Batik Graphics2D SVG Generator-->
<defs id="genericDefs"/>
<g>
<defs id="defs1">
<linearGradient x1="10" x2="10" y1="10" gradientUnits="userSpaceOnUse" y2="767" xlink:type="simple" xlink:actuate="onLoad" id="linearGradient1" xlink:show="other" spreadMethod="pad">
<stop stop-opacity="1" stop-color="white" offset="0%"/>
<stop stop-opacity="1" stop-color="white" offset="100%"/>
</linearGradient>
<linearGradient x1="60" x2="60" y1="45" gradientUnits="userSpaceOnUse" y2="436" xlink:type="simple" xlink:actuate="onLoad" id="linearGradient2" xlink:show="other" spreadMethod="pad">
<stop stop-opacity="1" stop-color="white" offset="0%"/>
<stop stop-opacity="1" stop-color="white" offset="100%"/>
</linearGradient>
<linearGradient x1="100" x2="100" y1="150" gradientUnits="userSpaceOnUse" y2="186" xlink:type="simple" xlink:actuate="onLoad" id="linearGradient3" xlink:show="other" spreadMethod="pad">
<stop stop-opacity="1" stop-color="white" offset="0%"/>
<stop stop-opacity="1" stop-color="white" offset="100%"/>
</linearGradient>
<linearGradient x1="315" x2="315" y1="45" gradientUnits="userSpaceOnUse" y2="431" xlink:type="simple" xlink:actuate="onLoad" id="linearGradient4" xlink:show="other" spreadMethod="pad">
<stop stop-opacity="1" stop-color="white" offset="0%"/>
<stop stop-opacity="1" stop-color="white" offset="100%"/>
</linearGradient>
<linearGradient x1="355" x2="355" y1="100" gradientUnits="userSpaceOnUse" y2="241" xlink:type="simple" xlink:actuate="onLoad" id="linearGradient5" xlink:show="other" spreadMethod="pad">
<stop stop-opacity="1" stop-color="white" offset="0%"/>
<stop stop-opacity="1" stop-color="white" offset="100%"/>
</linearGradient>
<linearGradient x1="355" x2="355" y1="280" gradientUnits="userSpaceOnUse" y2="336" xlink:type="simple" xlink:actuate="onLoad" id="linearGradient6" xlink:show="other" spreadMethod="pad">
<stop stop-opacity="1" stop-color="white" offset="0%"/>
<stop stop-opacity="1" stop-color="white" offset="100%"/>
</linearGradient>
<linearGradient x1="590" x2="590" y1="45" gradientUnits="userSpaceOnUse" y2="431" xlink:type="simple" xlink:actuate="onLoad" id="linearGradient7" xlink:show="other" spreadMethod="pad">
<stop stop-opacity="1" stop-color="white" offset="0%"/>
<stop stop-opacity="1" stop-color="white" offset="100%"/>
</linearGradient>
<linearGradient x1="630" x2="630" y1="124" gradientUnits="userSpaceOnUse" y2="215" xlink:type="simple" xlink:actuate="onLoad" id="linearGradient8" xlink:show="other" spreadMethod="pad">
<stop stop-opacity="1" stop-color="white" offset="0%"/>
<stop stop-opacity="1" stop-color="white" offset="100%"/>
</linearGradient>
<clipPath clipPathUnits="userSpaceOnUse" id="clipPath1">
<path d="M10 10 L10 766 L866 766 L866 10 Z"/>
</clipPath>
<clipPath clipPathUnits="userSpaceOnUse" id="clipPath2">
<path d="M7 7 L870 7 L870 770 L7 770 L7 7 Z"/>
</clipPath>
<clipPath clipPathUnits="userSpaceOnUse" id="clipPath3">
<path d="M15 12 L263 12 L263 30 L15 30 L15 12 Z"/>
</clipPath>
<clipPath clipPathUnits="userSpaceOnUse" id="clipPath4">
<path d="M59 44 L161 44 L161 437 L59 437 L59 44 Z"/>
</clipPath>
<clipPath clipPathUnits="userSpaceOnUse" id="clipPath5">
<path d="M60 45 L60 435 L159 435 L159 45 Z"/>
</clipPath>
<clipPath clipPathUnits="userSpaceOnUse" id="clipPath6">
<path d="M82 47 L139 47 L139 65 L82 65 L82 47 Z"/>
</clipPath>
<clipPath clipPathUnits="userSpaceOnUse" id="clipPath7">
<path d="M100 150 L100 185 L119 185 L119 150 Z"/>
</clipPath>
<clipPath clipPathUnits="userSpaceOnUse" id="clipPath8">
<path d="M99 149 L121 149 L121 187 L99 187 L99 149 Z"/>
</clipPath>
<clipPath clipPathUnits="userSpaceOnUse" id="clipPath9">
<path d="M314 44 L416 44 L416 432 L314 432 L314 44 Z"/>
</clipPath>
<clipPath clipPathUnits="userSpaceOnUse" id="clipPath10">
<path d="M315 45 L315 430 L414 430 L414 45 Z"/>
</clipPath>
<clipPath clipPathUnits="userSpaceOnUse" id="clipPath11">
<path d="M354 47 L378 47 L378 65 L354 65 L354 47 Z"/>
</clipPath>
<clipPath clipPathUnits="userSpaceOnUse" id="clipPath12">
<path d="M355 100 L355 240 L374 240 L374 100 Z"/>
</clipPath>
<clipPath clipPathUnits="userSpaceOnUse" id="clipPath13">
<path d="M354 99 L376 99 L376 242 L354 242 L354 99 Z"/>
</clipPath>
<clipPath clipPathUnits="userSpaceOnUse" id="clipPath14">
<path d="M355 280 L355 335 L374 335 L374 280 Z"/>
</clipPath>
<clipPath clipPathUnits="userSpaceOnUse" id="clipPath15">
<path d="M354 279 L376 279 L376 337 L354 337 L354 279 Z"/>
</clipPath>
<clipPath clipPathUnits="userSpaceOnUse" id="clipPath16">
<path d="M589 44 L691 44 L691 432 L589 432 L589 44 Z"/>
</clipPath>
<clipPath clipPathUnits="userSpaceOnUse" id="clipPath17">
<path d="M590 45 L590 430 L689 430 L689 45 Z"/>
</clipPath>
<clipPath clipPathUnits="userSpaceOnUse" id="clipPath18">
<path d="M605 47 L676 47 L676 65 L605 65 L605 47 Z"/>
</clipPath>
<clipPath clipPathUnits="userSpaceOnUse" id="clipPath19">
<path d="M630 124 L630 214 L649 214 L649 124 Z"/>
</clipPath>
<clipPath clipPathUnits="userSpaceOnUse" id="clipPath20">
<path d="M629 123 L651 123 L651 216 L629 216 L629 123 Z"/>
</clipPath>
<clipPath clipPathUnits="userSpaceOnUse" id="clipPath21">
<path d="M9 9 L868 9 L868 768 L9 768 L9 9 Z"/>
</clipPath>
<clipPath clipPathUnits="userSpaceOnUse" id="clipPath22">
<path d="M-1 -1 L878 -1 L878 1021 L-1 1021 L-1 -1 Z"/>
</clipPath>
<clipPath clipPathUnits="userSpaceOnUse" id="clipPath23">
<path d="M185 164 L257 164 L257 182 L185 182 L185 164 Z"/>
</clipPath>
<clipPath clipPathUnits="userSpaceOnUse" id="clipPath24">
<path d="M613 178 L632 178 L632 193 L613 193 L613 178 Z"/>
</clipPath>
<clipPath clipPathUnits="userSpaceOnUse" id="clipPath25">
<path d="M404 103 L615 103 L615 121 L404 121 L404 103 Z"/>
</clipPath>
<clipPath clipPathUnits="userSpaceOnUse" id="clipPath26">
<path d="M623 118 L642 118 L642 133 L623 133 L623 118 Z"/>
</clipPath>
<clipPath clipPathUnits="userSpaceOnUse" id="clipPath27">
<path d="M467 194 L539 194 L539 212 L467 212 L467 194 Z"/>
</clipPath>
<clipPath clipPathUnits="userSpaceOnUse" id="clipPath28">
<path d="M374 208 L393 208 L393 223 L374 223 L374 208 Z"/>
</clipPath>
<clipPath clipPathUnits="userSpaceOnUse" id="clipPath29">
<path d="M182 258 L287 258 L287 276 L182 276 L182 258 Z"/>
</clipPath>
<clipPath clipPathUnits="userSpaceOnUse" id="clipPath30">
<path d="M338 273 L357 273 L357 288 L338 288 L338 273 Z"/>
</clipPath>
<clipPath clipPathUnits="userSpaceOnUse" id="clipPath31">
<path d="M509 129 L582 129 L582 147 L509 147 L509 129 Z"/>
</clipPath>
<clipPath clipPathUnits="userSpaceOnUse" id="clipPath32">
<path d="M119 143 L138 143 L138 158 L119 158 L119 143 Z"/>
</clipPath>
<clipPath clipPathUnits="userSpaceOnUse" id="clipPath33">
<path d="M189 219 L261 219 L261 237 L189 237 L189 219 Z"/>
</clipPath>
<clipPath clipPathUnits="userSpaceOnUse" id="clipPath34">
<path d="M109 233 L128 233 L128 248 L109 248 L109 233 Z"/>
</clipPath>
<clipPath clipPathUnits="userSpaceOnUse" id="clipPath35">
<path d="M199 339 L264 339 L264 357 L199 357 L199 339 Z"/>
</clipPath>
<clipPath clipPathUnits="userSpaceOnUse" id="clipPath36">
<path d="M109 328 L128 328 L128 343 L109 343 L109 328 Z"/>
</clipPath>
<clipPath clipPathUnits="userSpaceOnUse" id="clipPath37">
<path d="M141 78 L328 78 L328 96 L141 96 L141 78 Z"/>
</clipPath>
<clipPath clipPathUnits="userSpaceOnUse" id="clipPath38">
<path d="M338 93 L357 93 L357 108 L338 108 L338 93 Z"/>
</clipPath>
</defs>
<g fill="url(#linearGradient1)" font-family="'Segoe UI'" stroke-linejoin="round" stroke="url(#linearGradient1)" stroke-width="0" stroke-miterlimit="0">
<rect x="10" y="10" clip-path="url(#clipPath1)" width="857" height="757" stroke="none"/>
</g>
<g stroke-width="0.1" font-family="'Segoe UI'" stroke-linecap="butt">
<line clip-path="url(#clipPath2)" fill="none" x1="276" x2="276" y1="10" y2="23"/>
<line clip-path="url(#clipPath2)" fill="none" x1="276" x2="276" y1="23" y2="23"/>
<line clip-path="url(#clipPath2)" fill="none" x1="276" x2="269" y1="23" y2="29"/>
<line clip-path="url(#clipPath2)" fill="none" x1="269" x2="269" y1="29" y2="29"/>
<line clip-path="url(#clipPath2)" fill="none" x1="269" x2="10" y1="29" y2="29"/>
<text xml:space="preserve" x="16" y="26" clip-path="url(#clipPath3)" stroke="none">manageRightAccess_OperationalScenario#01  </text>
<rect x="60" y="45" clip-path="url(#clipPath4)" fill="none" width="99" height="19" stroke-width="1.1"/>
<line clip-path="url(#clipPath4)" fill="none" x1="110" x2="110" y1="64" y2="435" stroke-dasharray="5,5" stroke-width="1.1"/>
</g>
<g stroke-linecap="butt" fill="url(#linearGradient2)" font-family="'Segoe UI'" stroke-dasharray="5,5" stroke="url(#linearGradient2)" stroke-width="1.1">
<rect x="60" y="45" clip-path="url(#clipPath5)" width="100" opacity="0" height="391" stroke="none"/>
<text x="83" y="61" clip-path="url(#clipPath6)" fill="black" stroke="none" xml:space="preserve">inhabitant</text>
<rect x="100" y="150" clip-path="url(#clipPath7)" fill="url(#linearGradient3)" width="20" height="36" stroke="none"/>
<rect x="100" y="150" clip-path="url(#clipPath8)" fill="none" width="19" stroke-dasharray="none" rx="0" ry="0" height="35" stroke="black"/>
<rect x="315" y="45" clip-path="url(#clipPath9)" fill="none" width="99" stroke-dasharray="none" height="19" stroke="black"/>
<line clip-path="url(#clipPath9)" fill="none" x1="365" x2="365" y1="64" y2="430" stroke="black"/>
<rect x="315" y="45" clip-path="url(#clipPath10)" fill="url(#linearGradient4)" width="100" opacity="0" height="386" stroke="none"/>
<text x="355" y="61" clip-path="url(#clipPath11)" fill="black" stroke="none" xml:space="preserve">SHS</text>
<rect x="355" y="100" clip-path="url(#clipPath12)" fill="url(#linearGradient5)" width="20" height="141" stroke="none"/>
<rect x="355" y="100" clip-path="url(#clipPath13)" fill="none" width="19" stroke-dasharray="none" rx="0" ry="0" height="140" stroke="black"/>
<rect x="355" y="280" clip-path="url(#clipPath14)" fill="url(#linearGradient6)" width="20" stroke-dasharray="none" height="56" stroke="none"/>
<rect x="355" y="280" clip-path="url(#clipPath15)" fill="none" width="19" stroke-dasharray="none" rx="0" ry="0" height="55" stroke="black"/>
<rect x="590" y="45" clip-path="url(#clipPath16)" fill="none" width="99" stroke-dasharray="none" height="19" stroke="black"/>
<line clip-path="url(#clipPath16)" fill="none" x1="640" x2="640" y1="64" y2="430" stroke="black"/>
<rect x="590" y="45" clip-path="url(#clipPath17)" fill="url(#linearGradient7)" width="100" opacity="0" height="386" stroke="none"/>
<text x="606" y="61" clip-path="url(#clipPath18)" fill="black" stroke="none" xml:space="preserve">policeStation</text>
<rect x="630" y="124" clip-path="url(#clipPath19)" fill="url(#linearGradient8)" width="20" height="91" stroke="none"/>
<rect x="630" y="124" clip-path="url(#clipPath20)" fill="none" width="19" stroke-dasharray="none" rx="0" ry="0" height="90" stroke="black"/>
<rect x="10" y="10" clip-path="url(#clipPath21)" fill="none" width="856" stroke-dasharray="none" rx="0" ry="0" height="756" stroke="black"/>
</g>
<g text-rendering="optimizeLegibility" stroke-width="1.1" stroke-dasharray="6.6,3.3" font-family="'Segoe UI'" stroke-linecap="butt">
<line clip-path="url(#clipPath22)" fill="none" x1="120" x2="630" y1="185" y2="185"/>
<text xml:space="preserve" x="186" y="178" clip-path="url(#clipPath23)" stroke="none">acknowledge</text>
<line clip-path="url(#clipPath24)" fill="none" x1="614" x2="630" y1="191" y2="185" stroke-dasharray="none"/>
<line clip-path="url(#clipPath24)" fill="none" x1="630" x2="614" y1="185" y2="179" stroke-dasharray="none"/>
<line clip-path="url(#clipPath22)" fill="none" x1="375" x2="640" y1="125" y2="125" stroke-dasharray="none"/>
<text x="405" y="117" clip-path="url(#clipPath25)" stroke-dasharray="none" stroke="none" xml:space="preserve">informRightAccessModificationRequest</text>
<polygon stroke-dasharray="none" clip-path="url(#clipPath26)" points=" 640 125 624 131 624 119" stroke="none"/>
<polygon fill="none" stroke-dasharray="none" clip-path="url(#clipPath26)" points=" 640 125 624 131 624 119"/>
<line clip-path="url(#clipPath22)" fill="none" x1="630" x2="375" y1="215" y2="215"/>
<text xml:space="preserve" x="468" y="208" clip-path="url(#clipPath27)" stroke="none">acknowledge</text>
<line clip-path="url(#clipPath28)" fill="none" x1="391" x2="375" y1="209" y2="215" stroke-dasharray="none"/>
<line clip-path="url(#clipPath28)" fill="none" x1="375" x2="391" y1="215" y2="221" stroke-dasharray="none"/>
<line clip-path="url(#clipPath22)" fill="none" x1="110" x2="355" y1="280" y2="280" stroke-dasharray="none"/>
<text x="183" y="272" clip-path="url(#clipPath29)" stroke-dasharray="none" stroke="none" xml:space="preserve">changeAccessRight</text>
<polygon stroke-dasharray="none" clip-path="url(#clipPath30)" points=" 355 280 339 286 339 274" stroke="none"/>
<polygon fill="none" stroke-dasharray="none" clip-path="url(#clipPath30)" points=" 355 280 339 286 339 274"/>
<line clip-path="url(#clipPath22)" fill="none" x1="630" x2="120" y1="150" y2="150" stroke-dasharray="none"/>
<text x="510" y="143" clip-path="url(#clipPath31)" stroke-dasharray="none" stroke="none" xml:space="preserve">checkIdentity</text>
<polygon stroke-dasharray="none" clip-path="url(#clipPath32)" points=" 120 150 136 144 136 156" stroke="none"/>
<polygon fill="none" stroke-dasharray="none" clip-path="url(#clipPath32)" points=" 120 150 136 144 136 156"/>
<line clip-path="url(#clipPath22)" fill="none" x1="355" x2="110" y1="240" y2="240"/>
<text xml:space="preserve" x="190" y="233" clip-path="url(#clipPath33)" stroke="none">acknowledge</text>
<line clip-path="url(#clipPath34)" fill="none" x1="126" x2="110" y1="234" y2="240" stroke-dasharray="none"/>
<line clip-path="url(#clipPath34)" fill="none" x1="110" x2="126" y1="240" y2="246" stroke-dasharray="none"/>
<line clip-path="url(#clipPath22)" fill="none" x1="355" x2="110" y1="335" y2="335"/>
<text xml:space="preserve" x="200" y="353" clip-path="url(#clipPath35)" stroke="none">ackowledge</text>
<line clip-path="url(#clipPath36)" fill="none" x1="126" x2="110" y1="329" y2="335" stroke-dasharray="none"/>
<line clip-path="url(#clipPath36)" fill="none" x1="110" x2="126" y1="335" y2="341" stroke-dasharray="none"/>
<line clip-path="url(#clipPath22)" fill="none" x1="110" x2="355" y1="100" y2="100" stroke-dasharray="none"/>
<text x="142" y="92" clip-path="url(#clipPath37)" stroke-dasharray="none" stroke="none" xml:space="preserve">startSecurityAccessChangeRequest</text>
<polygon stroke-dasharray="none" clip-path="url(#clipPath38)" points=" 355 100 339 106 339 94" stroke="none"/>
<polygon fill="none" stroke-dasharray="none" clip-path="url(#clipPath38)" points=" 355 100 339 106 339 94"/>
<line clip-path="url(#clipPath22)" fill="none" x1="110" x2="355" y1="100" y2="100" stroke-dasharray="none"/>
<text x="142" y="92" clip-path="url(#clipPath37)" stroke-dasharray="none" stroke="none" xml:space="preserve">startSecurityAccessChangeRequest</text>
<polygon stroke-dasharray="none" clip-path="url(#clipPath38)" points=" 355 100 339 106 339 94" stroke="none"/>
<polygon fill="none" stroke-dasharray="none" clip-path="url(#clipPath38)" points=" 355 100 339 106 339 94"/>
<line clip-path="url(#clipPath22)" fill="none" x1="355" x2="110" y1="240" y2="240"/>
<text xml:space="preserve" x="190" y="233" clip-path="url(#clipPath33)" stroke="none">acknowledge</text>
<line clip-path="url(#clipPath34)" fill="none" x1="126" x2="110" y1="234" y2="240" stroke-dasharray="none"/>
<line clip-path="url(#clipPath34)" fill="none" x1="110" x2="126" y1="240" y2="246" stroke-dasharray="none"/>
<line clip-path="url(#clipPath22)" fill="none" x1="375" x2="640" y1="125" y2="125" stroke-dasharray="none"/>
<text x="405" y="117" clip-path="url(#clipPath25)" stroke-dasharray="none" stroke="none" xml:space="preserve">informRightAccessModificationRequest</text>
<polygon stroke-dasharray="none" clip-path="url(#clipPath26)" points=" 640 125 624 131 624 119" stroke="none"/>
<polygon fill="none" stroke-dasharray="none" clip-path="url(#clipPath26)" points=" 640 125 624 131 624 119"/>
<line clip-path="url(#clipPath22)" fill="none" x1="630" x2="375" y1="215" y2="215"/>
<text xml:space="preserve" x="468" y="208" clip-path="url(#clipPath27)" stroke="none">acknowledge</text>
<line clip-path="url(#clipPath28)" fill="none" x1="391" x2="375" y1="209" y2="215" stroke-dasharray="none"/>
<line clip-path="url(#clipPath28)" fill="none" x1="375" x2="391" y1="215" y2="221" stroke-dasharray="none"/>
<line clip-path="url(#clipPath22)" fill="none" x1="630" x2="120" y1="150" y2="150" stroke-dasharray="none"/>
<text x="510" y="143" clip-path="url(#clipPath31)" stroke-dasharray="none" stroke="none" xml:space="preserve">checkIdentity</text>
<polygon stroke-dasharray="none" clip-path="url(#clipPath32)" points=" 120 150 136 144 136 156" stroke="none"/>
<polygon fill="none" stroke-dasharray="none" clip-path="url(#clipPath32)" points=" 120 150 136 144 136 156"/>
<line clip-path="url(#clipPath22)" fill="none" x1="120" x2="630" y1="185" y2="185"/>
<text xml:space="preserve" x="186" y="178" clip-path="url(#clipPath23)" stroke="none">acknowledge</text>
<line clip-path="url(#clipPath24)" fill="none" x1="614" x2="630" y1="191" y2="185" stroke-dasharray="none"/>
<line clip-path="url(#clipPath24)" fill="none" x1="630" x2="614" y1="185" y2="179" stroke-dasharray="none"/>
<line clip-path="url(#clipPath22)" fill="none" x1="110" x2="355" y1="280" y2="280" stroke-dasharray="none"/>
<text x="183" y="272" clip-path="url(#clipPath29)" stroke-dasharray="none" stroke="none" xml:space="preserve">changeAccessRight</text>
<polygon stroke-dasharray="none" clip-path="url(#clipPath30)" points=" 355 280 339 286 339 274" stroke="none"/>
<polygon fill="none" stroke-dasharray="none" clip-path="url(#clipPath30)" points=" 355 280 339 286 339 274"/>
<line clip-path="url(#clipPath22)" fill="none" x1="355" x2="110" y1="335" y2="335"/>
<text xml:space="preserve" x="200" y="353" clip-path="url(#clipPath35)" stroke="none">ackowledge</text>
<line clip-path="url(#clipPath36)" fill="none" x1="126" x2="110" y1="329" y2="335" stroke-dasharray="none"/>
<line clip-path="url(#clipPath36)" fill="none" x1="110" x2="126" y1="335" y2="341" stroke-dasharray="none"/>
</g>
</g>
</svg>
